<?xml version="1.0" encoding="UTF-8" standalone="no"?>
<!DOCTYPE svg PUBLIC "-//W3C//DTD SVG 1.1//EN"
 "http://www.w3.org/Graphics/SVG/1.1/DTD/svg11.dtd">
<!-- Generated by graphviz version 2.43.0 (0)
 -->
<!-- Title: BusinessOverview Pages: 1 -->
<svg width="1170pt" height="842pt"
 viewBox="0.00 0.00 1170.02 842.00" xmlns="http://www.w3.org/2000/svg" xmlns:xlink="http://www.w3.org/1999/xlink">
<g id="graph0" class="graph" transform="scale(0.26 0.26) rotate(0) translate(21.6 3254.37)">
<title>BusinessOverview</title>
<polygon fill="white" stroke="transparent" points="-21.6,21.6 -21.6,-3254.37 4530.6,-3254.37 4530.6,21.6 -21.6,21.6"/>
<text text-anchor="start" x="2019.5" y="-3215.37" font-family="Helvetica,sans-Serif" font-weight="bold" font-size="18.00">Deals Platform PoC — Business&#45;Team Overview</text>
<text text-anchor="start" x="2013.5" y="-3202.97" font-family="Helvetica,sans-Serif" font-size="11.00">Four modules, one shared spine. Evidence&#45;grounded, human&#45;reviewed, offline&#45;testable.</text>
<g id="clust1" class="cluster">
<title>cluster_sources</title>
<path fill="#f7fbff" stroke="#666666" d="M12,-19.64C12,-19.64 244,-19.64 244,-19.64 250,-19.64 256,-25.64 256,-31.64 256,-31.64 256,-1085.17 256,-1085.17 256,-1091.17 250,-1097.17 244,-1097.17 244,-1097.17 12,-1097.17 12,-1097.17 6,-1097.17 0,-1091.17 0,-1085.17 0,-1085.17 0,-31.64 0,-31.64 0,-25.64 6,-19.64 12,-19.64"/>
<text text-anchor="start" x="8" y="-1083.77" font-family="Helvetica,sans-Serif" font-weight="bold" font-size="13.00">1. Data sources (public vs client)</text>
</g>
<g id="clust2" class="cluster">
<title>cluster_ingest</title>
<path fill="#fafafa" stroke="#666666" d="M305,-419.72C305,-419.72 1074,-419.72 1074,-419.72 1080,-419.72 1086,-425.72 1086,-431.72 1086,-431.72 1086,-618.81 1086,-618.81 1086,-624.81 1080,-630.81 1074,-630.81 1074,-630.81 305,-630.81 305,-630.81 299,-630.81 293,-624.81 293,-618.81 293,-618.81 293,-431.72 293,-431.72 293,-425.72 299,-419.72 305,-419.72"/>
<text text-anchor="start" x="301" y="-617.41" font-family="Helvetica,sans-Serif" font-weight="bold" font-size="13.00">2. Ingestion pipeline</text>
</g>
<g id="clust3" class="cluster">
<title>cluster_spine</title>
<path fill="#fafafa" stroke="#666666" d="M1135,-250.36C1135,-250.36 2593,-250.36 2593,-250.36 2599,-250.36 2605,-256.36 2605,-262.36 2605,-262.36 2605,-618.81 2605,-618.81 2605,-624.81 2599,-630.81 2593,-630.81 2593,-630.81 1135,-630.81 1135,-630.81 1129,-630.81 1123,-624.81 1123,-618.81 1123,-618.81 1123,-262.36 1123,-262.36 1123,-256.36 1129,-250.36 1135,-250.36"/>
<text text-anchor="start" x="1131" y="-617.41" font-family="Helvetica,sans-Serif" font-weight="bold" font-size="13.00">3. Shared spine (models, evidence, scoring, explain, hallucination detection, critic)</text>
</g>
<g id="clust4" class="cluster">
<title>cluster_modules</title>
<path fill="#fafafa" stroke="#666666" d="M2654,-240.54C2654,-240.54 3019,-240.54 3019,-240.54 3025,-240.54 3031,-246.54 3031,-252.54 3031,-252.54 3031,-928.08 3031,-928.08 3031,-934.08 3025,-940.08 3019,-940.08 3019,-940.08 2654,-940.08 2654,-940.08 2648,-940.08 2642,-934.08 2642,-928.08 2642,-928.08 2642,-252.54 2642,-252.54 2642,-246.54 2648,-240.54 2654,-240.54"/>
<text text-anchor="start" x="2650" y="-926.68" font-family="Helvetica,sans-Serif" font-weight="bold" font-size="13.00">4. Module logic (CS1 / CS2 public · CS3 / CS4 client)</text>
</g>
<g id="clust5" class="cluster">
<title>cluster_outputs</title>
<path fill="#f3fbf2" stroke="#666666" d="M3080,-233.18C3080,-233.18 3267,-233.18 3267,-233.18 3273,-233.18 3279,-239.18 3279,-245.18 3279,-245.18 3279,-1031.17 3279,-1031.17 3279,-1037.17 3273,-1043.17 3267,-1043.17 3267,-1043.17 3080,-1043.17 3080,-1043.17 3074,-1043.17 3068,-1037.17 3068,-1031.17 3068,-1031.17 3068,-245.18 3068,-245.18 3068,-239.18 3074,-233.18 3080,-233.18"/>
<text text-anchor="start" x="3076" y="-1029.77" font-family="Helvetica,sans-Serif" font-weight="bold" font-size="13.00">5. User&#45;facing outputs</text>
</g>
<g id="clust6" class="cluster">
<title>cluster_review</title>
<path fill="#fffbe6" stroke="#666666" d="M3357.5,-616.08C3357.5,-616.08 4489,-616.08 4489,-616.08 4495,-616.08 4501,-622.08 4501,-628.08 4501,-628.08 4501,-942.8 4501,-942.8 4501,-948.8 4495,-954.8 4489,-954.8 4489,-954.8 3357.5,-954.8 3357.5,-954.8 3351.5,-954.8 3345.5,-948.8 3345.5,-942.8 3345.5,-942.8 3345.5,-628.08 3345.5,-628.08 3345.5,-622.08 3351.5,-616.08 3357.5,-616.08"/>
<text text-anchor="start" x="3353.5" y="-941.4" font-family="Helvetica,sans-Serif" font-weight="bold" font-size="13.00">6. Human&#45;in&#45;the&#45;loop review</text>
</g>
<g id="clust7" class="cluster">
<title>cluster_feedback</title>
<path fill="#fbf3ff" stroke="#666666" d="M3328,-73.64C3328,-73.64 3526,-73.64 3526,-73.64 3532,-73.64 3538,-79.64 3538,-85.64 3538,-85.64 3538,-572.17 3538,-572.17 3538,-578.17 3532,-584.17 3526,-584.17 3526,-584.17 3328,-584.17 3328,-584.17 3322,-584.17 3316,-578.17 3316,-572.17 3316,-572.17 3316,-85.64 3316,-85.64 3316,-79.64 3322,-73.64 3328,-73.64"/>
<text text-anchor="start" x="3324" y="-570.77" font-family="Helvetica,sans-Serif" font-weight="bold" font-size="13.00">7. Feedback + learning loop</text>
</g>
<!-- src_edgar -->
<g id="node1" class="node">
<title>src_edgar</title>
<path fill="#d6e9ff" stroke="black" d="M186,-972.91C186,-975.12 160,-976.91 128,-976.91 96,-976.91 70,-975.12 70,-972.91 70,-972.91 70,-936.91 70,-936.91 70,-934.7 96,-932.91 128,-932.91 160,-932.91 186,-934.7 186,-936.91 186,-936.91 186,-972.91 186,-972.91"/>
<path fill="none" stroke="black" d="M186,-972.91C186,-970.7 160,-968.91 128,-968.91 96,-968.91 70,-970.7 70,-972.91"/>
<text text-anchor="middle" x="128" y="-958.11" font-family="Helvetica,sans-Serif" font-size="11.00">SEC EDGAR filings</text>
<text text-anchor="middle" x="128" y="-946.11" font-family="Helvetica,sans-Serif" font-size="11.00">(10&#45;K, 8&#45;K, S&#45;1)</text>
</g>
<!-- ing_adapter -->
<g id="node7" class="node">
<title>ing_adapter</title>
<polygon fill="#e8e8e8" stroke="black" points="457,-515.91 307,-515.91 307,-479.91 457,-479.91 457,-515.91"/>
<text text-anchor="middle" x="382" y="-501.11" font-family="Helvetica,sans-Serif" font-size="11.00">Source adapter</text>
<text text-anchor="middle" x="382" y="-489.11" font-family="Helvetica,sans-Serif" font-size="11.00">(pluggable, rate&#45;limited)</text>
</g>
<!-- src_edgar&#45;&gt;ing_adapter -->
<g id="edge1" class="edge">
<title>src_edgar&#45;&gt;ing_adapter</title>
<path fill="none" stroke="#333333" d="M186.27,-954.91C261.26,-954.91 382,-954.91 382,-954.91 382,-954.91 382,-526.11 382,-526.11"/>
<polygon fill="#333333" stroke="#333333" points="385.5,-526.11 382,-516.11 378.5,-526.11 385.5,-526.11"/>
</g>
<!-- src_news -->
<g id="node2" class="node">
<title>src_news</title>
<path fill="#d6e9ff" stroke="black" d="M197,-803.91C197,-806.12 166.07,-807.91 128,-807.91 89.93,-807.91 59,-806.12 59,-803.91 59,-803.91 59,-767.91 59,-767.91 59,-765.7 89.93,-763.91 128,-763.91 166.07,-763.91 197,-765.7 197,-767.91 197,-767.91 197,-803.91 197,-803.91"/>
<path fill="none" stroke="black" d="M197,-803.91C197,-801.7 166.07,-799.91 128,-799.91 89.93,-799.91 59,-801.7 59,-803.91"/>
<text text-anchor="middle" x="128" y="-789.11" font-family="Helvetica,sans-Serif" font-size="11.00">News feeds</text>
<text text-anchor="middle" x="128" y="-777.11" font-family="Helvetica,sans-Serif" font-size="11.00">(RSS / press releases)</text>
</g>
<!-- src_news&#45;&gt;ing_adapter -->
<g id="edge2" class="edge">
<title>src_news&#45;&gt;ing_adapter</title>
<path fill="none" stroke="#333333" d="M186,-764.62C186,-699.71 186,-508.71 186,-508.71 186,-508.71 296.78,-508.71 296.78,-508.71"/>
<polygon fill="#333333" stroke="#333333" points="296.78,-512.21 306.78,-508.71 296.78,-505.21 296.78,-512.21"/>
</g>
<!-- src_market -->
<g id="node3" class="node">
<title>src_market</title>
<path fill="#d6e9ff" stroke="black" stroke-width="2" stroke-dasharray="5,2" d="M180,-633.91C180,-636.12 156.69,-637.91 128,-637.91 99.31,-637.91 76,-636.12 76,-633.91 76,-633.91 76,-597.91 76,-597.91 76,-595.7 99.31,-593.91 128,-593.91 156.69,-593.91 180,-595.7 180,-597.91 180,-597.91 180,-633.91 180,-633.91"/>
<path fill="none" stroke="black" stroke-width="2" stroke-dasharray="5,2" d="M180,-633.91C180,-631.7 156.69,-629.91 128,-629.91 99.31,-629.91 76,-631.7 76,-633.91"/>
<text text-anchor="middle" x="128" y="-619.11" font-family="Helvetica,sans-Serif" font-size="11.00">Market data</text>
<text text-anchor="middle" x="128" y="-607.11" font-family="Helvetica,sans-Serif" font-size="11.00">(prices, indices)</text>
</g>
<!-- src_market&#45;&gt;ing_adapter -->
<g id="edge3" class="edge">
<title>src_market&#45;&gt;ing_adapter</title>
<path fill="none" stroke="#333333" d="M128,-593.85C128,-560.61 128,-501.51 128,-501.51 128,-501.51 296.82,-501.51 296.82,-501.51"/>
<polygon fill="#333333" stroke="#333333" points="296.82,-505.01 306.82,-501.51 296.82,-498.01 296.82,-505.01"/>
</g>
<!-- src_xbrl -->
<g id="node4" class="node">
<title>src_xbrl</title>
<path fill="#d6e9ff" stroke="black" d="M200,-464.91C200,-467.12 167.73,-468.91 128,-468.91 88.27,-468.91 56,-467.12 56,-464.91 56,-464.91 56,-428.91 56,-428.91 56,-426.7 88.27,-424.91 128,-424.91 167.73,-424.91 200,-426.7 200,-428.91 200,-428.91 200,-464.91 200,-464.91"/>
<path fill="none" stroke="black" d="M200,-464.91C200,-462.7 167.73,-460.91 128,-460.91 88.27,-460.91 56,-462.7 56,-464.91"/>
<text text-anchor="middle" x="128" y="-450.11" font-family="Helvetica,sans-Serif" font-size="11.00">XBRL peer benchmarks</text>
<text text-anchor="middle" x="128" y="-438.11" font-family="Helvetica,sans-Serif" font-size="11.00">(public filings)</text>
</g>
<!-- src_xbrl&#45;&gt;ing_adapter -->
<g id="edge4" class="edge">
<title>src_xbrl&#45;&gt;ing_adapter</title>
<path fill="none" stroke="#333333" d="M192,-467.56C192,-480.33 192,-494.31 192,-494.31 192,-494.31 296.91,-494.31 296.91,-494.31"/>
<polygon fill="#333333" stroke="#333333" points="296.91,-497.81 306.91,-494.31 296.91,-490.81 296.91,-497.81"/>
</g>
<!-- src_upload -->
<g id="node5" class="node">
<title>src_upload</title>
<path fill="#ffe3d6" stroke="black" d="M210,-294.91C210,-297.12 173.25,-298.91 128,-298.91 82.75,-298.91 46,-297.12 46,-294.91 46,-294.91 46,-258.91 46,-258.91 46,-256.7 82.75,-254.91 128,-254.91 173.25,-254.91 210,-256.7 210,-258.91 210,-258.91 210,-294.91 210,-294.91"/>
<path fill="none" stroke="black" d="M210,-294.91C210,-292.7 173.25,-290.91 128,-290.91 82.75,-290.91 46,-292.7 46,-294.91"/>
<text text-anchor="middle" x="128" y="-280.11" font-family="Helvetica,sans-Serif" font-size="11.00">Client uploads</text>
<text text-anchor="middle" x="128" y="-268.11" font-family="Helvetica,sans-Serif" font-size="11.00">(AR / AP / inventory / KPIs)</text>
</g>
<!-- src_upload&#45;&gt;ing_adapter -->
<g id="edge5" class="edge">
<title>src_upload&#45;&gt;ing_adapter</title>
<path fill="none" stroke="#333333" d="M205,-297.45C205,-350.34 205,-487.11 205,-487.11 205,-487.11 296.94,-487.11 296.94,-487.11"/>
<polygon fill="#333333" stroke="#333333" points="296.94,-490.61 306.94,-487.11 296.94,-483.61 296.94,-490.61"/>
</g>
<!-- src_kpi -->
<g id="node6" class="node">
<title>src_kpi</title>
<path fill="#ffe3d6" stroke="black" d="M187.5,-125.91C187.5,-128.12 160.83,-129.91 128,-129.91 95.17,-129.91 68.5,-128.12 68.5,-125.91 68.5,-125.91 68.5,-89.91 68.5,-89.91 68.5,-87.7 95.17,-85.91 128,-85.91 160.83,-85.91 187.5,-87.7 187.5,-89.91 187.5,-89.91 187.5,-125.91 187.5,-125.91"/>
<path fill="none" stroke="black" d="M187.5,-125.91C187.5,-123.7 160.83,-121.91 128,-121.91 95.17,-121.91 68.5,-123.7 68.5,-125.91"/>
<text text-anchor="middle" x="128" y="-111.11" font-family="Helvetica,sans-Serif" font-size="11.00">Deal KPI plans</text>
<text text-anchor="middle" x="128" y="-99.11" font-family="Helvetica,sans-Serif" font-size="11.00">(targets + curves)</text>
</g>
<!-- src_kpi&#45;&gt;ing_adapter -->
<g id="edge6" class="edge">
<title>src_kpi&#45;&gt;ing_adapter</title>
<path fill="none" stroke="#333333" d="M187.55,-107.91C262.63,-107.91 382,-107.91 382,-107.91 382,-107.91 382,-469.88 382,-469.88"/>
<polygon fill="#333333" stroke="#333333" points="378.5,-469.88 382,-479.88 385.5,-469.88 378.5,-469.88"/>
</g>
<!-- ing_fetch -->
<g id="node8" class="node">
<title>ing_fetch</title>
<polygon fill="#e8e8e8" stroke="black" points="666,-515.91 522,-515.91 522,-479.91 666,-479.91 666,-515.91"/>
<text text-anchor="middle" x="594" y="-501.11" font-family="Helvetica,sans-Serif" font-size="11.00">Fetch + cache</text>
<text text-anchor="middle" x="594" y="-489.11" font-family="Helvetica,sans-Serif" font-size="11.00">(retrieved_at stamped)</text>
</g>
<!-- ing_adapter&#45;&gt;ing_fetch -->
<g id="edge7" class="edge">
<title>ing_adapter&#45;&gt;ing_fetch</title>
<path fill="none" stroke="#333333" d="M457.04,-497.91C457.04,-497.91 511.91,-497.91 511.91,-497.91"/>
<polygon fill="#333333" stroke="#333333" points="511.91,-501.41 521.91,-497.91 511.91,-494.41 511.91,-501.41"/>
</g>
<!-- ing_parse -->
<g id="node9" class="node">
<title>ing_parse</title>
<polygon fill="#e8e8e8" stroke="black" points="861.5,-515.91 730.5,-515.91 730.5,-479.91 861.5,-479.91 861.5,-515.91"/>
<text text-anchor="middle" x="796" y="-501.11" font-family="Helvetica,sans-Serif" font-size="11.00">Parse + normalise</text>
<text text-anchor="middle" x="796" y="-489.11" font-family="Helvetica,sans-Serif" font-size="11.00">(parsed_at stamped)</text>
</g>
<!-- ing_fetch&#45;&gt;ing_parse -->
<g id="edge8" class="edge">
<title>ing_fetch&#45;&gt;ing_parse</title>
<path fill="none" stroke="#333333" d="M666.07,-497.91C666.07,-497.91 720.35,-497.91 720.35,-497.91"/>
<polygon fill="#333333" stroke="#333333" points="720.35,-501.41 730.35,-497.91 720.35,-494.41 720.35,-501.41"/>
</g>
<!-- ing_chunk -->
<g id="node10" class="node">
<title>ing_chunk</title>
<polygon fill="#e8e8e8" stroke="black" points="1071.5,-515.91 926.5,-515.91 926.5,-479.91 1071.5,-479.91 1071.5,-515.91"/>
<text text-anchor="middle" x="999" y="-501.11" font-family="Helvetica,sans-Serif" font-size="11.00">Chunk + embed</text>
<text text-anchor="middle" x="999" y="-489.11" font-family="Helvetica,sans-Serif" font-size="11.00">(RAG index per source)</text>
</g>
<!-- ing_parse&#45;&gt;ing_chunk -->
<g id="edge9" class="edge">
<title>ing_parse&#45;&gt;ing_chunk</title>
<path fill="none" stroke="#333333" d="M861.63,-497.91C861.63,-497.91 916.22,-497.91 916.22,-497.91"/>
<polygon fill="#333333" stroke="#333333" points="916.22,-501.41 926.22,-497.91 916.22,-494.41 916.22,-501.41"/>
</g>
<!-- sp_canon -->
<g id="node11" class="node">
<title>sp_canon</title>
<polygon fill="#e8e8e8" stroke="black" points="1297,-515.91 1143,-515.91 1143,-479.91 1297,-479.91 1297,-515.91"/>
<text text-anchor="middle" x="1220" y="-501.11" font-family="Helvetica,sans-Serif" font-size="11.00">Canonical entities</text>
<text text-anchor="middle" x="1220" y="-489.11" font-family="Helvetica,sans-Serif" font-size="11.00">(Company, Deal, Person)</text>
</g>
<!-- ing_chunk&#45;&gt;sp_canon -->
<g id="edge10" class="edge">
<title>ing_chunk&#45;&gt;sp_canon</title>
<path fill="none" stroke="#333333" d="M1071.67,-497.91C1071.67,-497.91 1132.73,-497.91 1132.73,-497.91"/>
<polygon fill="#333333" stroke="#333333" points="1132.73,-501.41 1142.73,-497.91 1132.73,-494.41 1132.73,-501.41"/>
</g>
<!-- sp_evid -->
<g id="node12" class="node">
<title>sp_evid</title>
<polygon fill="#e8e8e8" stroke="black" points="1522,-515.91 1368,-515.91 1368,-479.91 1522,-479.91 1522,-515.91"/>
<text text-anchor="middle" x="1445" y="-501.11" font-family="Helvetica,sans-Serif" font-size="11.00">Evidence store</text>
<text text-anchor="middle" x="1445" y="-489.11" font-family="Helvetica,sans-Serif" font-size="11.00">(every claim is cite&#45;able)</text>
</g>
<!-- sp_canon&#45;&gt;sp_evid -->
<g id="edge11" class="edge">
<title>sp_canon&#45;&gt;sp_evid</title>
<path fill="none" stroke="#333333" d="M1297.12,-497.91C1297.12,-497.91 1357.98,-497.91 1357.98,-497.91"/>
<polygon fill="#333333" stroke="#333333" points="1357.98,-501.41 1367.98,-497.91 1357.98,-494.41 1357.98,-501.41"/>
</g>
<!-- sp_signals -->
<g id="node13" class="node">
<title>sp_signals</title>
<polygon fill="#e8e8e8" stroke="black" points="1743.5,-515.91 1586.5,-515.91 1586.5,-479.91 1743.5,-479.91 1743.5,-515.91"/>
<text text-anchor="middle" x="1665" y="-501.11" font-family="Helvetica,sans-Serif" font-size="11.00">Signal handlers</text>
<text text-anchor="middle" x="1665" y="-489.11" font-family="Helvetica,sans-Serif" font-size="11.00">(declarative, per domain)</text>
</g>
<!-- sp_evid&#45;&gt;sp_signals -->
<g id="edge12" class="edge">
<title>sp_evid&#45;&gt;sp_signals</title>
<path fill="none" stroke="#333333" d="M1522.25,-497.91C1522.25,-497.91 1576.44,-497.91 1576.44,-497.91"/>
<polygon fill="#333333" stroke="#333333" points="1576.44,-501.41 1586.44,-497.91 1576.44,-494.41 1576.44,-501.41"/>
</g>
<!-- sp_score -->
<g id="node14" class="node">
<title>sp_score</title>
<polygon fill="#e8e8e8" stroke="black" points="1941.5,-515.91 1808.5,-515.91 1808.5,-479.91 1941.5,-479.91 1941.5,-515.91"/>
<text text-anchor="middle" x="1875" y="-501.11" font-family="Helvetica,sans-Serif" font-size="11.00">Weighted scoring</text>
<text text-anchor="middle" x="1875" y="-489.11" font-family="Helvetica,sans-Serif" font-size="11.00">(tunable per module)</text>
</g>
<!-- sp_signals&#45;&gt;sp_score -->
<g id="edge13" class="edge">
<title>sp_signals&#45;&gt;sp_score</title>
<path fill="none" stroke="#333333" d="M1743.79,-497.91C1743.79,-497.91 1798.48,-497.91 1798.48,-497.91"/>
<polygon fill="#333333" stroke="#333333" points="1798.48,-501.41 1808.48,-497.91 1798.48,-494.41 1798.48,-501.41"/>
</g>
<!-- sp_explain -->
<g id="node15" class="node">
<title>sp_explain</title>
<polygon fill="#e8e8e8" stroke="black" points="2129,-515.91 2007,-515.91 2007,-479.91 2129,-479.91 2129,-515.91"/>
<text text-anchor="middle" x="2068" y="-501.11" font-family="Helvetica,sans-Serif" font-size="11.00">Evidence&#45;grounded</text>
<text text-anchor="middle" x="2068" y="-489.11" font-family="Helvetica,sans-Serif" font-size="11.00">explanation layer</text>
</g>
<!-- sp_score&#45;&gt;sp_explain -->
<g id="edge14" class="edge">
<title>sp_score&#45;&gt;sp_explain</title>
<path fill="none" stroke="#333333" d="M1941.69,-497.91C1941.69,-497.91 1996.81,-497.91 1996.81,-497.91"/>
<polygon fill="#333333" stroke="#333333" points="1996.81,-501.41 2006.81,-497.91 1996.81,-494.41 1996.81,-501.41"/>
</g>
<!-- sp_halluc -->
<g id="node16" class="node">
<title>sp_halluc</title>
<polygon fill="#e8e8e8" stroke="black" points="2400,-515.91 2194,-515.91 2194,-479.91 2400,-479.91 2400,-515.91"/>
<text text-anchor="middle" x="2297" y="-501.11" font-family="Helvetica,sans-Serif" font-size="11.00">Hallucination detector</text>
<text text-anchor="middle" x="2297" y="-489.11" font-family="Helvetica,sans-Serif" font-size="11.00">(coverage %, unsupported claims)</text>
</g>
<!-- sp_explain&#45;&gt;sp_halluc -->
<g id="edge15" class="edge">
<title>sp_explain&#45;&gt;sp_halluc</title>
<path fill="none" stroke="#333333" d="M2129.07,-497.91C2129.07,-497.91 2183.67,-497.91 2183.67,-497.91"/>
<polygon fill="#333333" stroke="#333333" points="2183.67,-501.41 2193.67,-497.91 2183.67,-494.41 2183.67,-501.41"/>
</g>
<!-- sp_critic -->
<g id="node17" class="node">
<title>sp_critic</title>
<polygon fill="#e8e8e8" stroke="black" points="2591,-515.91 2465,-515.91 2465,-479.91 2591,-479.91 2591,-515.91"/>
<text text-anchor="middle" x="2528" y="-501.11" font-family="Helvetica,sans-Serif" font-size="11.00">Unsupported&#45;claims</text>
<text text-anchor="middle" x="2528" y="-489.11" font-family="Helvetica,sans-Serif" font-size="11.00">critic (blocks in CI)</text>
</g>
<!-- sp_halluc&#45;&gt;sp_critic -->
<g id="edge16" class="edge">
<title>sp_halluc&#45;&gt;sp_critic</title>
<path fill="none" stroke="#333333" d="M2400,-497.91C2400,-497.91 2454.97,-497.91 2454.97,-497.91"/>
<polygon fill="#333333" stroke="#333333" points="2454.97,-501.41 2464.97,-497.91 2454.97,-494.41 2454.97,-501.41"/>
</g>
<!-- m_cs1 -->
<g id="node19" class="node">
<title>m_cs1</title>
<polygon fill="#d6e9ff" stroke="black" points="2909,-519.91 2767,-519.91 2763,-515.91 2763,-475.91 2905,-475.91 2909,-479.91 2909,-519.91"/>
<polyline fill="none" stroke="black" points="2905,-515.91 2763,-515.91 "/>
<polyline fill="none" stroke="black" points="2905,-515.91 2905,-475.91 "/>
<polyline fill="none" stroke="black" points="2905,-515.91 2909,-519.91 "/>
<text text-anchor="middle" x="2836" y="-507.11" font-family="Helvetica,sans-Serif" font-size="11.00">CS1 — M&amp;A Origination</text>
<text text-anchor="middle" x="2836" y="-495.11" font-family="Helvetica,sans-Serif" font-size="11.00">public only · 12&#45;24m</text>
<text text-anchor="middle" x="2836" y="-483.11" font-family="Helvetica,sans-Serif" font-size="11.00">&gt;$1bn equity</text>
</g>
<!-- sp_critic&#45;&gt;m_cs1 -->
<g id="edge17" class="edge">
<title>sp_critic&#45;&gt;m_cs1</title>
<path fill="none" stroke="#333333" d="M2591.07,-497.91C2591.07,-497.91 2752.73,-497.91 2752.73,-497.91"/>
<polygon fill="#333333" stroke="#333333" points="2752.73,-501.41 2762.73,-497.91 2752.73,-494.41 2752.73,-501.41"/>
</g>
<!-- m_cs2 -->
<g id="node20" class="node">
<title>m_cs2</title>
<polygon fill="#d6e9ff" stroke="black" points="2921,-350.91 2755,-350.91 2751,-346.91 2751,-306.91 2917,-306.91 2921,-310.91 2921,-350.91"/>
<polyline fill="none" stroke="black" points="2917,-346.91 2751,-346.91 "/>
<polyline fill="none" stroke="black" points="2917,-346.91 2917,-306.91 "/>
<polyline fill="none" stroke="black" points="2917,-346.91 2921,-350.91 "/>
<text text-anchor="middle" x="2836" y="-338.11" font-family="Helvetica,sans-Serif" font-size="11.00">CS2 — Carve&#45;Out Detection</text>
<text text-anchor="middle" x="2836" y="-326.11" font-family="Helvetica,sans-Serif" font-size="11.00">public only · 6&#45;18m</text>
<text text-anchor="middle" x="2836" y="-314.11" font-family="Helvetica,sans-Serif" font-size="11.00">&gt;$750m equity</text>
</g>
<!-- sp_critic&#45;&gt;m_cs2 -->
<g id="edge18" class="edge">
<title>sp_critic&#45;&gt;m_cs2</title>
<path fill="none" stroke="#333333" d="M2591.18,-488.91C2658.96,-488.91 2757,-488.91 2757,-488.91 2757,-488.91 2757,-361.16 2757,-361.16"/>
<polygon fill="#333333" stroke="#333333" points="2760.5,-361.16 2757,-351.16 2753.5,-361.16 2760.5,-361.16"/>
</g>
<!-- m_cs3 -->
<g id="node21" class="node">
<title>m_cs3</title>
<polygon fill="#ffe3d6" stroke="black" points="2928.5,-825.91 2747.5,-825.91 2743.5,-821.91 2743.5,-789.91 2924.5,-789.91 2928.5,-793.91 2928.5,-825.91"/>
<polyline fill="none" stroke="black" points="2924.5,-821.91 2743.5,-821.91 "/>
<polyline fill="none" stroke="black" points="2924.5,-821.91 2924.5,-789.91 "/>
<polyline fill="none" stroke="black" points="2924.5,-821.91 2928.5,-825.91 "/>
<text text-anchor="middle" x="2836" y="-811.11" font-family="Helvetica,sans-Serif" font-size="11.00">CS3 — Post&#45;Deal Value Tracker</text>
<text text-anchor="middle" x="2836" y="-799.11" font-family="Helvetica,sans-Serif" font-size="11.00">client + public · 0&#45;24m</text>
</g>
<!-- sp_critic&#45;&gt;m_cs3 -->
<g id="edge19" class="edge">
<title>sp_critic&#45;&gt;m_cs3</title>
<path fill="none" stroke="#333333" d="M2528,-516.28C2528,-581.64 2528,-798.91 2528,-798.91 2528,-798.91 2733.17,-798.91 2733.17,-798.91"/>
<polygon fill="#333333" stroke="#333333" points="2733.17,-802.41 2743.17,-798.91 2733.17,-795.41 2733.17,-802.41"/>
</g>
<!-- m_cs4 -->
<g id="node22" class="node">
<title>m_cs4</title>
<polygon fill="#ffe3d6" stroke="black" points="2938,-675.91 2738,-675.91 2734,-671.91 2734,-639.91 2934,-639.91 2938,-643.91 2938,-675.91"/>
<polyline fill="none" stroke="black" points="2934,-671.91 2734,-671.91 "/>
<polyline fill="none" stroke="black" points="2934,-671.91 2934,-639.91 "/>
<polyline fill="none" stroke="black" points="2934,-671.91 2938,-675.91 "/>
<text text-anchor="middle" x="2836" y="-661.11" font-family="Helvetica,sans-Serif" font-size="11.00">CS4 — Working&#45;Capital Diagnostic</text>
<text text-anchor="middle" x="2836" y="-649.11" font-family="Helvetica,sans-Serif" font-size="11.00">client + XBRL peers · 3&#45;9m</text>
</g>
<!-- sp_critic&#45;&gt;m_cs4 -->
<g id="edge20" class="edge">
<title>sp_critic&#45;&gt;m_cs4</title>
<path fill="none" stroke="#333333" d="M2591.05,-506.91C2654.49,-506.91 2743,-506.91 2743,-506.91 2743,-506.91 2743,-629.69 2743,-629.69"/>
<polygon fill="#333333" stroke="#333333" points="2739.5,-629.69 2743,-639.69 2746.5,-629.69 2739.5,-629.69"/>
</g>
<!-- sp_llm -->
<g id="node18" class="node">
<title>sp_llm</title>
<polygon fill="#e8e8e8" stroke="black" points="1297,-360.91 1137,-360.91 1137,-316.91 1303,-316.91 1303,-354.91 1297,-360.91"/>
<polyline fill="none" stroke="black" points="1297,-360.91 1297,-354.91 "/>
<polyline fill="none" stroke="black" points="1303,-354.91 1297,-354.91 "/>
<text text-anchor="middle" x="1220" y="-348.11" font-family="Helvetica,sans-Serif" font-size="11.00">LLM router</text>
<text text-anchor="middle" x="1220" y="-336.11" font-family="Helvetica,sans-Serif" font-size="11.00">Haiku: extract / classify</text>
<text text-anchor="middle" x="1220" y="-324.11" font-family="Helvetica,sans-Serif" font-size="11.00">Sonnet: synthesis / explain</text>
</g>
<!-- out_queue -->
<g id="node23" class="node">
<title>out_queue</title>
<polygon fill="#e4f7e1" stroke="black" points="3246,-329.91 3243,-333.91 3222,-333.91 3219,-329.91 3100,-329.91 3100,-293.91 3246,-293.91 3246,-329.91"/>
<text text-anchor="middle" x="3173" y="-315.11" font-family="Helvetica,sans-Serif" font-size="11.00">Ranked situation queue</text>
<text text-anchor="middle" x="3173" y="-303.11" font-family="Helvetica,sans-Serif" font-size="11.00">(score + confidence)</text>
</g>
<!-- m_cs1&#45;&gt;out_queue -->
<g id="edge21" class="edge">
<title>m_cs1&#45;&gt;out_queue</title>
<path fill="none" stroke="#333333" d="M2909.33,-489.91C2990.8,-489.91 3111,-489.91 3111,-489.91 3111,-489.91 3111,-339.96 3111,-339.96"/>
<polygon fill="#333333" stroke="#333333" points="3114.5,-339.96 3111,-329.96 3107.5,-339.96 3114.5,-339.96"/>
</g>
<!-- out_heat -->
<g id="node24" class="node">
<title>out_heat</title>
<polygon fill="#e4f7e1" stroke="black" points="3225,-479.91 3222,-483.91 3201,-483.91 3198,-479.91 3121,-479.91 3121,-443.91 3225,-443.91 3225,-479.91"/>
<text text-anchor="middle" x="3173" y="-465.11" font-family="Helvetica,sans-Serif" font-size="11.00">Sector heatmap</text>
<text text-anchor="middle" x="3173" y="-453.11" font-family="Helvetica,sans-Serif" font-size="11.00">(CS1 / CS2)</text>
</g>
<!-- m_cs1&#45;&gt;out_heat -->
<g id="edge23" class="edge">
<title>m_cs1&#45;&gt;out_heat</title>
<path fill="none" stroke="#333333" d="M2909.12,-499.91C3008.24,-499.91 3173,-499.91 3173,-499.91 3173,-499.91 3173,-490.02 3173,-490.02"/>
<polygon fill="#333333" stroke="#333333" points="3176.5,-490.02 3173,-480.02 3169.5,-490.02 3176.5,-490.02"/>
</g>
<!-- out_expl -->
<g id="node27" class="node">
<title>out_expl</title>
<polygon fill="#e4f7e1" stroke="black" points="3259.5,-628.91 3256.5,-632.91 3235.5,-632.91 3232.5,-628.91 3086.5,-628.91 3086.5,-592.91 3259.5,-592.91 3259.5,-628.91"/>
<text text-anchor="middle" x="3173" y="-614.11" font-family="Helvetica,sans-Serif" font-size="11.00">Per&#45;item explanation</text>
<text text-anchor="middle" x="3173" y="-602.11" font-family="Helvetica,sans-Serif" font-size="11.00">+ evidence panel + caveats</text>
</g>
<!-- m_cs1&#45;&gt;out_expl -->
<g id="edge27" class="edge">
<title>m_cs1&#45;&gt;out_expl</title>
<path fill="none" stroke="#333333" d="M2909.07,-509.91C2984.42,-509.91 3091,-509.91 3091,-509.91 3091,-509.91 3091,-582.85 3091,-582.85"/>
<polygon fill="#333333" stroke="#333333" points="3087.5,-582.85 3091,-592.85 3094.5,-582.85 3087.5,-582.85"/>
</g>
<!-- m_cs2&#45;&gt;out_queue -->
<g id="edge22" class="edge">
<title>m_cs2&#45;&gt;out_queue</title>
<path fill="none" stroke="#333333" d="M2921.04,-318.41C2921.04,-318.41 3089.99,-318.41 3089.99,-318.41"/>
<polygon fill="#333333" stroke="#333333" points="3089.99,-321.91 3099.99,-318.41 3089.99,-314.91 3089.99,-321.91"/>
</g>
<!-- m_cs2&#45;&gt;out_heat -->
<g id="edge24" class="edge">
<title>m_cs2&#45;&gt;out_heat</title>
<path fill="none" stroke="#333333" d="M2915,-351.12C2915,-387.65 2915,-456.41 2915,-456.41 2915,-456.41 3110.79,-456.41 3110.79,-456.41"/>
<polygon fill="#333333" stroke="#333333" points="3110.79,-459.91 3120.79,-456.41 3110.79,-452.91 3110.79,-459.91"/>
</g>
<!-- m_cs2&#45;&gt;out_expl -->
<g id="edge28" class="edge">
<title>m_cs2&#45;&gt;out_expl</title>
<path fill="none" stroke="#333333" d="M2921.13,-340.41C2996.96,-340.41 3096,-340.41 3096,-340.41 3096,-340.41 3096,-582.74 3096,-582.74"/>
<polygon fill="#333333" stroke="#333333" points="3092.5,-582.74 3096,-592.74 3099.5,-582.74 3092.5,-582.74"/>
</g>
<!-- out_kpi -->
<g id="node25" class="node">
<title>out_kpi</title>
<polygon fill="#e4f7e1" stroke="black" points="3264.5,-928.91 3261.5,-932.91 3240.5,-932.91 3237.5,-928.91 3081.5,-928.91 3081.5,-892.91 3264.5,-892.91 3264.5,-928.91"/>
<text text-anchor="middle" x="3173" y="-914.11" font-family="Helvetica,sans-Serif" font-size="11.00">KPI trend&#45;band charts</text>
<text text-anchor="middle" x="3173" y="-902.11" font-family="Helvetica,sans-Serif" font-size="11.00">(CS3: in / above / below band)</text>
</g>
<!-- m_cs3&#45;&gt;out_kpi -->
<g id="edge25" class="edge">
<title>m_cs3&#45;&gt;out_kpi</title>
<path fill="none" stroke="#333333" d="M2928.53,-814.41C3028.3,-814.41 3173,-814.41 3173,-814.41 3173,-814.41 3173,-882.76 3173,-882.76"/>
<polygon fill="#333333" stroke="#333333" points="3169.5,-882.76 3173,-892.76 3176.5,-882.76 3169.5,-882.76"/>
</g>
<!-- m_cs3&#45;&gt;out_expl -->
<g id="edge29" class="edge">
<title>m_cs3&#45;&gt;out_expl</title>
<path fill="none" stroke="#333333" d="M2928.6,-796.41C2970.16,-796.41 3010,-796.41 3010,-796.41 3010,-796.41 3010,-617.24 3010,-617.24 3010,-617.24 3076.25,-617.24 3076.25,-617.24"/>
<polygon fill="#333333" stroke="#333333" points="3076.25,-620.74 3086.25,-617.24 3076.25,-613.74 3076.25,-620.74"/>
</g>
<!-- out_wc -->
<g id="node26" class="node">
<title>out_wc</title>
<polygon fill="#e4f7e1" stroke="black" points="3256.5,-778.91 3253.5,-782.91 3232.5,-782.91 3229.5,-778.91 3089.5,-778.91 3089.5,-742.91 3256.5,-742.91 3256.5,-778.91"/>
<text text-anchor="middle" x="3173" y="-764.11" font-family="Helvetica,sans-Serif" font-size="11.00">Working&#45;capital diagnostic</text>
<text text-anchor="middle" x="3173" y="-752.11" font-family="Helvetica,sans-Serif" font-size="11.00">(DSO / DPO / DIO vs peers)</text>
</g>
<!-- m_cs4&#45;&gt;out_wc -->
<g id="edge26" class="edge">
<title>m_cs4&#45;&gt;out_wc</title>
<path fill="none" stroke="#333333" d="M2934,-676.32C2934,-704.07 2934,-753.41 2934,-753.41 2934,-753.41 3079.41,-753.41 3079.41,-753.41"/>
<polygon fill="#333333" stroke="#333333" points="3079.41,-756.91 3089.41,-753.41 3079.41,-749.91 3079.41,-756.91"/>
</g>
<!-- m_cs4&#45;&gt;out_expl -->
<g id="edge30" class="edge">
<title>m_cs4&#45;&gt;out_expl</title>
<path fill="none" stroke="#333333" d="M2930,-639.9C2930,-624.76 2930,-605.58 2930,-605.58 2930,-605.58 3076.3,-605.58 3076.3,-605.58"/>
<polygon fill="#333333" stroke="#333333" points="3076.3,-609.08 3086.3,-605.58 3076.3,-602.08 3076.3,-609.08"/>
</g>
<!-- rv_queue -->
<g id="node28" class="node">
<title>rv_queue</title>
<polygon fill="#fff5ba" stroke="black" points="3493,-776.91 3359,-776.91 3359,-740.91 3493,-740.91 3493,-776.91"/>
<text text-anchor="middle" x="3426" y="-762.11" font-family="Helvetica,sans-Serif" font-size="11.00">Human review queue</text>
<text text-anchor="middle" x="3426" y="-750.11" font-family="Helvetica,sans-Serif" font-size="11.00">(analyst triage)</text>
</g>
<!-- out_queue&#45;&gt;rv_queue -->
<g id="edge31" class="edge">
<title>out_queue&#45;&gt;rv_queue</title>
<path fill="none" stroke="#333333" d="M3246.04,-324.91C3293.65,-324.91 3347,-324.91 3347,-324.91 3347,-324.91 3347,-754.24 3347,-754.24 3347,-754.24 3349,-754.24 3349,-754.24"/>
<polygon fill="#333333" stroke="#333333" points="3349,-757.74 3359,-754.24 3349,-750.74 3349,-757.74"/>
</g>
<!-- out_kpi&#45;&gt;rv_queue -->
<g id="edge32" class="edge">
<title>out_kpi&#45;&gt;rv_queue</title>
<path fill="none" stroke="#333333" d="M3264.7,-910.91C3337.1,-910.91 3426,-910.91 3426,-910.91 3426,-910.91 3426,-786.94 3426,-786.94"/>
<polygon fill="#333333" stroke="#333333" points="3429.5,-786.94 3426,-776.94 3422.5,-786.94 3429.5,-786.94"/>
</g>
<!-- out_wc&#45;&gt;rv_queue -->
<g id="edge33" class="edge">
<title>out_wc&#45;&gt;rv_queue</title>
<path fill="none" stroke="#333333" d="M3256.54,-765.58C3256.54,-765.58 3348.94,-765.58 3348.94,-765.58"/>
<polygon fill="#333333" stroke="#333333" points="3348.94,-769.08 3358.94,-765.58 3348.94,-762.08 3348.94,-769.08"/>
</g>
<!-- out_expl&#45;&gt;rv_queue -->
<g id="edge34" class="edge">
<title>out_expl&#45;&gt;rv_queue</title>
<path fill="none" stroke="#333333" d="M3259.67,-610.91C3325.22,-610.91 3404,-610.91 3404,-610.91 3404,-610.91 3404,-730.76 3404,-730.76"/>
<polygon fill="#333333" stroke="#333333" points="3400.5,-730.76 3404,-740.76 3407.5,-730.76 3400.5,-730.76"/>
</g>
<!-- rv_gate -->
<g id="node29" class="node">
<title>rv_gate</title>
<polygon fill="#fff5ba" stroke="black" points="3922,-802.91 3796,-758.91 3922,-714.91 4048,-758.91 3922,-802.91"/>
<text text-anchor="middle" x="3922" y="-768.11" font-family="Helvetica,sans-Serif" font-size="11.00">Approve?</text>
<text text-anchor="middle" x="3922" y="-756.11" font-family="Helvetica,sans-Serif" font-size="11.00">requires reviewer +</text>
<text text-anchor="middle" x="3922" y="-744.11" font-family="Helvetica,sans-Serif" font-size="11.00">ts + reason</text>
</g>
<!-- rv_queue&#45;&gt;rv_gate -->
<g id="edge35" class="edge">
<title>rv_queue&#45;&gt;rv_gate</title>
<path fill="none" stroke="#333333" d="M3493.15,-758.91C3493.15,-758.91 3785.81,-758.91 3785.81,-758.91"/>
<polygon fill="#333333" stroke="#333333" points="3785.81,-762.41 3795.81,-758.91 3785.81,-755.41 3785.81,-762.41"/>
</g>
<!-- rv_out -->
<g id="node30" class="node">
<title>rv_out</title>
<polygon fill="#e4f7e1" stroke="black" points="4487,-776.91 4321,-776.91 4321,-740.91 4487,-740.91 4487,-776.91"/>
<text text-anchor="middle" x="4404" y="-762.11" font-family="Helvetica,sans-Serif" font-size="11.00">Approved recommendation</text>
<text text-anchor="middle" x="4404" y="-750.11" font-family="Helvetica,sans-Serif" font-size="11.00">(surfaced to business)</text>
</g>
<!-- rv_gate&#45;&gt;rv_out -->
<g id="edge36" class="edge">
<title>rv_gate&#45;&gt;rv_out</title>
<path fill="none" stroke="#333333" d="M4048.01,-758.91C4048.01,-758.91 4310.77,-758.91 4310.77,-758.91"/>
<polygon fill="#333333" stroke="#333333" points="4310.77,-762.41 4320.77,-758.91 4310.77,-755.41 4310.77,-762.41"/>
</g>
<!-- fb_labels -->
<g id="node31" class="node">
<title>fb_labels</title>
<polygon fill="#f0d6ff" stroke="black" points="3494.5,-469.91 3357.5,-469.91 3357.5,-433.91 3494.5,-433.91 3494.5,-469.91"/>
<text text-anchor="middle" x="3426" y="-455.11" font-family="Helvetica,sans-Serif" font-size="11.00">Reviewer labels</text>
<text text-anchor="middle" x="3426" y="-443.11" font-family="Helvetica,sans-Serif" font-size="11.00">(accept / edit / reject)</text>
</g>
<!-- rv_gate&#45;&gt;fb_labels -->
<g id="edge37" class="edge">
<title>rv_gate&#45;&gt;fb_labels</title>
<path fill="none" stroke="#8e44ad" stroke-width="1.4" stroke-dasharray="5,2" d="M3884.49,-727.91C3772.61,-727.91 3449,-727.91 3449,-727.91 3449,-727.91 3449,-480.02 3449,-480.02"/>
<polygon fill="#8e44ad" stroke="#8e44ad" stroke-width="1.4" points="3452.5,-480.02 3449,-470.02 3445.5,-480.02 3452.5,-480.02"/>
</g>
<!-- fb_tune -->
<g id="node32" class="node">
<title>fb_tune</title>
<polygon fill="#f0d6ff" stroke="black" points="3472.5,-319.91 3379.5,-319.91 3379.5,-283.91 3472.5,-283.91 3472.5,-319.91"/>
<text text-anchor="middle" x="3426" y="-305.11" font-family="Helvetica,sans-Serif" font-size="11.00">Weight tuning</text>
<text text-anchor="middle" x="3426" y="-293.11" font-family="Helvetica,sans-Serif" font-size="11.00">+ calibration</text>
</g>
<!-- fb_labels&#45;&gt;fb_tune -->
<g id="edge38" class="edge">
<title>fb_labels&#45;&gt;fb_tune</title>
<path fill="none" stroke="#8e44ad" stroke-width="1.4" stroke-dasharray="5,2" d="M3426,-433.82C3426,-433.82 3426,-330.07 3426,-330.07"/>
<polygon fill="#8e44ad" stroke="#8e44ad" stroke-width="1.4" points="3429.5,-330.07 3426,-320.07 3422.5,-330.07 3429.5,-330.07"/>
</g>
<!-- fb_cover -->
<g id="node33" class="node">
<title>fb_cover</title>
<polygon fill="#f0d6ff" stroke="black" points="3515.5,-169.91 3336.5,-169.91 3336.5,-133.91 3515.5,-133.91 3515.5,-169.91"/>
<text text-anchor="middle" x="3426" y="-155.11" font-family="Helvetica,sans-Serif" font-size="11.00">Coverage + label dashboards</text>
<text text-anchor="middle" x="3426" y="-143.11" font-family="Helvetica,sans-Serif" font-size="11.00">(/eval)</text>
</g>
<!-- fb_labels&#45;&gt;fb_cover -->
<g id="edge40" class="edge">
<title>fb_labels&#45;&gt;fb_cover</title>
<path fill="none" stroke="#8e44ad" stroke-width="1.4" stroke-dasharray="5,2" d="M3484,-433.59C3484,-433.59 3484,-179.98 3484,-179.98"/>
<polygon fill="#8e44ad" stroke="#8e44ad" stroke-width="1.4" points="3487.5,-179.98 3484,-169.98 3480.5,-179.98 3487.5,-179.98"/>
</g>
<!-- fb_tune&#45;&gt;sp_score -->
<g id="edge39" class="edge">
<title>fb_tune&#45;&gt;sp_score</title>
<path fill="none" stroke="#8e44ad" stroke-width="1.4" stroke-dasharray="5,2" d="M3379.16,-288.91C3120.16,-288.91 1875,-288.91 1875,-288.91 1875,-288.91 1875,-469.73 1875,-469.73"/>
<polygon fill="#8e44ad" stroke="#8e44ad" stroke-width="1.4" points="1871.5,-469.73 1875,-479.73 1878.5,-469.73 1871.5,-469.73"/>
</g>
<!-- legend -->
<g id="node34" class="node">
<title>legend</title>
<text text-anchor="start" x="3707" y="-3017.71" font-family="Helvetica,sans-Serif" font-weight="bold" font-size="14.00">Legend</text>
<polygon fill="#d6e9ff" stroke="transparent" points="3705,-2989.91 3705,-3008.91 3734,-3008.91 3734,-2989.91 3705,-2989.91"/>
<text text-anchor="start" x="3717" y="-2995.71" font-family="Helvetica,sans-Serif" font-size="14.00"> </text>
<text text-anchor="start" x="3738" y="-2995.71" font-family="Helvetica,sans-Serif" font-size="14.00">Public&#45;data scope (CS1 / CS2)</text>
<polygon fill="#ffe3d6" stroke="transparent" points="3705,-2968.91 3705,-2987.91 3734,-2987.91 3734,-2968.91 3705,-2968.91"/>
<text text-anchor="start" x="3717" y="-2974.71" font-family="Helvetica,sans-Serif" font-size="14.00"> </text>
<text text-anchor="start" x="3738" y="-2974.71" font-family="Helvetica,sans-Serif" font-size="14.00">Client&#45;data scope (CS3 / CS4)</text>
<polygon fill="#e8e8e8" stroke="transparent" points="3705,-2947.91 3705,-2966.91 3734,-2966.91 3734,-2947.91 3705,-2947.91"/>
<text text-anchor="start" x="3717" y="-2953.71" font-family="Helvetica,sans-Serif" font-size="14.00"> </text>
<text text-anchor="start" x="3738" y="-2953.71" font-family="Helvetica,sans-Serif" font-size="14.00">Shared spine / ingestion</text>
<polygon fill="#e4f7e1" stroke="transparent" points="3705,-2926.91 3705,-2945.91 3734,-2945.91 3734,-2926.91 3705,-2926.91"/>
<text text-anchor="start" x="3717" y="-2932.71" font-family="Helvetica,sans-Serif" font-size="14.00"> </text>
<text text-anchor="start" x="3738" y="-2932.71" font-family="Helvetica,sans-Serif" font-size="14.00">User&#45;facing output</text>
<polygon fill="#fff5ba" stroke="transparent" points="3705,-2905.91 3705,-2924.91 3734,-2924.91 3734,-2905.91 3705,-2905.91"/>
<text text-anchor="start" x="3717" y="-2911.71" font-family="Helvetica,sans-Serif" font-size="14.00"> </text>
<text text-anchor="start" x="3738" y="-2911.71" font-family="Helvetica,sans-Serif" font-size="14.00">Human&#45;in&#45;the&#45;loop</text>
<polygon fill="#f0d6ff" stroke="transparent" points="3705,-2884.91 3705,-2903.91 3734,-2903.91 3734,-2884.91 3705,-2884.91"/>
<text text-anchor="start" x="3717" y="-2890.71" font-family="Helvetica,sans-Serif" font-size="14.00"> </text>
<text text-anchor="start" x="3738" y="-2890.71" font-family="Helvetica,sans-Serif" font-size="14.00">Feedback / learning</text>
<text text-anchor="start" x="3714" y="-2869.71" font-family="Helvetica,sans-Serif" font-size="14.00">◇</text>
<text text-anchor="start" x="3738" y="-2869.71" font-family="Helvetica,sans-Serif" font-size="14.00">Diamond = HITL gate</text>
<text text-anchor="start" x="3707" y="-2848.71" font-family="Helvetica,sans-Serif" font-size="14.00">&#45; &#45; &#45;</text>
<text text-anchor="start" x="3738" y="-2848.71" font-family="Helvetica,sans-Serif" font-size="14.00">Dashed border = mocked/fixture source (no live feed yet)</text>
<text text-anchor="start" x="3707" y="-2827.71" font-family="Helvetica,sans-Serif" font-size="14.00">&#45; &#45; &#45;</text>
<text text-anchor="start" x="3738" y="-2827.71" font-family="Helvetica,sans-Serif" font-size="14.00">Purple dashed arrow = feedback path</text>
</g>
<!-- out_of_scope -->
<g id="node35" class="node">
<title>out_of_scope</title>
<polygon fill="#fadbd8" stroke="transparent" points="3730,-2287.91 3730,-2459.91 4114,-2459.91 4114,-2287.91 3730,-2287.91"/>
<text text-anchor="start" x="3735" y="-2444.71" font-family="Helvetica,sans-Serif" font-weight="bold" font-size="14.00">Explicitly OUT of scope for this PoC</text>
<text text-anchor="start" x="3735" y="-2422.71" font-family="Helvetica,sans-Serif" font-size="14.00">• SSO / enterprise identity</text>
<text text-anchor="start" x="3735" y="-2401.71" font-family="Helvetica,sans-Serif" font-size="14.00">• Production security hardening</text>
<text text-anchor="start" x="3735" y="-2380.71" font-family="Helvetica,sans-Serif" font-size="14.00">• Multi&#45;tenancy / row&#45;level isolation beyond scope tag</text>
<text text-anchor="start" x="3735" y="-2359.71" font-family="Helvetica,sans-Serif" font-size="14.00">• Mobile UI</text>
<text text-anchor="start" x="3735" y="-2338.71" font-family="Helvetica,sans-Serif" font-size="14.00">• Outbound automation (emails, CRM writes)</text>
<text text-anchor="start" x="3735" y="-2317.71" font-family="Helvetica,sans-Serif" font-size="14.00">• Paywall / ToS&#45;restricted scraping</text>
<text text-anchor="start" x="3735" y="-2296.71" font-family="Helvetica,sans-Serif" font-size="14.00">• Real client data (synthetic fixtures only)</text>
<polygon fill="none" stroke="black" points="3730,-2287.91 3730,-2459.91 4114,-2459.91 4114,-2287.91 3730,-2287.91"/>
</g>
<!-- legend&#45;&gt;out_of_scope -->
<!-- ai_map -->
<g id="node36" class="node">
<title>ai_map</title>
<polygon fill="#ffffff" stroke="transparent" points="3596.5,-1674.41 3596.5,-1909.41 4247.5,-1909.41 4247.5,-1674.41 3596.5,-1674.41"/>
<text text-anchor="start" x="3602" y="-1893.71" font-family="Helvetica,sans-Serif" font-weight="bold" font-size="14.00">AI / platform considerations → where they live</text>
<text text-anchor="start" x="3602" y="-1871.71" font-family="Helvetica,sans-Serif" font-size="14.00">RAG &amp; chunking</text>
<text text-anchor="start" x="3831" y="-1871.71" font-family="Helvetica,sans-Serif" font-size="14.00">Ingestion (step 2)</text>
<text text-anchor="start" x="3602" y="-1850.71" font-family="Helvetica,sans-Serif" font-size="14.00">LLM routing (Haiku / Sonnet)</text>
<text text-anchor="start" x="3831" y="-1850.71" font-family="Helvetica,sans-Serif" font-size="14.00">Shared spine (step 3)</text>
<text text-anchor="start" x="3602" y="-1829.71" font-family="Helvetica,sans-Serif" font-size="14.00">Evidence grounding + citations</text>
<text text-anchor="start" x="3831" y="-1829.71" font-family="Helvetica,sans-Serif" font-size="14.00">Evidence store + explain layer</text>
<text text-anchor="start" x="3602" y="-1808.71" font-family="Helvetica,sans-Serif" font-size="14.00">Hallucination detection</text>
<text text-anchor="start" x="3831" y="-1808.71" font-family="Helvetica,sans-Serif" font-size="14.00">Shared spine, measures coverage % &amp; unsupported claims</text>
<text text-anchor="start" x="3602" y="-1787.71" font-family="Helvetica,sans-Serif" font-size="14.00">Unsupported&#45;claims critic</text>
<text text-anchor="start" x="3831" y="-1787.71" font-family="Helvetica,sans-Serif" font-size="14.00">Shared spine, blocks merge in CI</text>
<text text-anchor="start" x="3602" y="-1766.71" font-family="Helvetica,sans-Serif" font-size="14.00">Weighted, tunable scoring</text>
<text text-anchor="start" x="3831" y="-1766.71" font-family="Helvetica,sans-Serif" font-size="14.00">Shared spine + feedback loop</text>
<text text-anchor="start" x="3602" y="-1745.71" font-family="Helvetica,sans-Serif" font-size="14.00">HITL governance</text>
<text text-anchor="start" x="3831" y="-1745.71" font-family="Helvetica,sans-Serif" font-size="14.00">Review step (6)</text>
<text text-anchor="start" x="3602" y="-1724.71" font-family="Helvetica,sans-Serif" font-size="14.00">Offline&#45;default LLM client</text>
<text text-anchor="start" x="3831" y="-1724.71" font-family="Helvetica,sans-Serif" font-size="14.00">Tests + CI run deterministic</text>
<text text-anchor="start" x="3602" y="-1703.71" font-family="Helvetica,sans-Serif" font-size="14.00">Source adapters (pluggable)</text>
<text text-anchor="start" x="3831" y="-1703.71" font-family="Helvetica,sans-Serif" font-size="14.00">Ingestion (step 2)</text>
<text text-anchor="start" x="3602" y="-1682.71" font-family="Helvetica,sans-Serif" font-size="14.00">Data segregation (AST&#45;checked)</text>
<text text-anchor="start" x="3831" y="-1682.71" font-family="Helvetica,sans-Serif" font-size="14.00">Module boundary (step 4)</text>
<polygon fill="none" stroke="black" points="3596.5,-1674.41 3596.5,-1909.41 4247.5,-1909.41 4247.5,-1674.41 3596.5,-1674.41"/>
</g>
<!-- out_of_scope&#45;&gt;ai_map -->
<!-- controls -->
<g id="node37" class="node">
<title>controls</title>
<polygon fill="#ffffff" stroke="transparent" points="3758,-1123.91 3758,-1295.91 4086,-1295.91 4086,-1123.91 3758,-1123.91"/>
<text text-anchor="start" x="3763" y="-1280.71" font-family="Helvetica,sans-Serif" font-weight="bold" font-size="14.00">Quality controls shipped in the PoC</text>
<text text-anchor="start" x="3763" y="-1258.71" font-family="Helvetica,sans-Serif" font-size="14.00">• Every score cites ≥ 1 Evidence row</text>
<text text-anchor="start" x="3763" y="-1237.71" font-family="Helvetica,sans-Serif" font-size="14.00">• Unsupported&#45;claims check runs in CI</text>
<text text-anchor="start" x="3763" y="-1216.71" font-family="Helvetica,sans-Serif" font-size="14.00">• No approval without reviewer + ts + reason</text>
<text text-anchor="start" x="3763" y="-1195.71" font-family="Helvetica,sans-Serif" font-size="14.00">• Module imports enforced by AST test</text>
<text text-anchor="start" x="3763" y="-1174.71" font-family="Helvetica,sans-Serif" font-size="14.00">• Mocked sources flagged visibly in UI</text>
<text text-anchor="start" x="3763" y="-1153.71" font-family="Helvetica,sans-Serif" font-size="14.00">• Deterministic offline LLM in tests</text>
<text text-anchor="start" x="3763" y="-1132.71" font-family="Helvetica,sans-Serif" font-size="14.00">• Coverage + label dashboards at /eval</text>
<polygon fill="none" stroke="black" points="3758,-1123.91 3758,-1295.91 4086,-1295.91 4086,-1123.91 3758,-1123.91"/>
</g>
<!-- ai_map&#45;&gt;controls -->
</g>
</svg>
