<?xml version="1.0" encoding="UTF-8" standalone="no"?>
<!DOCTYPE svg PUBLIC "-//W3C//DTD SVG 1.1//EN"
 "http://www.w3.org/Graphics/SVG/1.1/DTD/svg11.dtd">
<!-- Generated by graphviz version 2.43.0 (0)
 -->
<!-- Title: BusinessOverview Pages: 1 -->
<svg width="1168pt" height="842pt"
 viewBox="0.00 0.00 1168.06 842.00" xmlns="http://www.w3.org/2000/svg" xmlns:xlink="http://www.w3.org/1999/xlink">
<g id="graph0" class="graph" transform="scale(0.29 0.29) rotate(0) translate(21.6 2932.6)">
<title>BusinessOverview</title>
<polygon fill="white" stroke="transparent" points="-21.6,21.6 -21.6,-2932.6 4076.6,-2932.6 4076.6,21.6 -21.6,21.6"/>
<text text-anchor="start" x="1792.5" y="-2893.6" font-family="Helvetica,sans-Serif" font-weight="bold" font-size="18.00">Deals Platform PoC — Business&#45;Team Overview</text>
<text text-anchor="start" x="1786.5" y="-2881.2" font-family="Helvetica,sans-Serif" font-size="11.00">Four modules, one shared spine. Evidence&#45;grounded, human&#45;reviewed, offline&#45;testable.</text>
<g id="clust1" class="cluster">
<title>cluster_sources</title>
<path fill="#f7fbff" stroke="#666666" d="M12,-17.96C12,-17.96 244,-17.96 244,-17.96 250,-17.96 256,-23.96 256,-29.96 256,-29.96 256,-991.65 256,-991.65 256,-997.65 250,-1003.65 244,-1003.65 244,-1003.65 12,-1003.65 12,-1003.65 6,-1003.65 0,-997.65 0,-991.65 0,-991.65 0,-29.96 0,-29.96 0,-23.96 6,-17.96 12,-17.96"/>
<text text-anchor="start" x="8" y="-990.25" font-family="Helvetica,sans-Serif" font-weight="bold" font-size="13.00">1. Data sources (public vs client)</text>
</g>
<g id="clust2" class="cluster">
<title>cluster_ingest</title>
<path fill="#fafafa" stroke="#666666" d="M305,-383.95C305,-383.95 1074,-383.95 1074,-383.95 1080,-383.95 1086,-389.95 1086,-395.95 1086,-395.95 1086,-565.04 1086,-565.04 1086,-571.04 1080,-577.04 1074,-577.04 1074,-577.04 305,-577.04 305,-577.04 299,-577.04 293,-571.04 293,-565.04 293,-565.04 293,-395.95 293,-395.95 293,-389.95 299,-383.95 305,-383.95"/>
<text text-anchor="start" x="301" y="-563.64" font-family="Helvetica,sans-Serif" font-weight="bold" font-size="13.00">2. Ingestion pipeline</text>
</g>
<g id="clust3" class="cluster">
<title>cluster_spine</title>
<path fill="#fafafa" stroke="#666666" d="M1135,-229.02C1135,-229.02 2322,-229.02 2322,-229.02 2328,-229.02 2334,-235.02 2334,-241.02 2334,-241.02 2334,-565.04 2334,-565.04 2334,-571.04 2328,-577.04 2322,-577.04 2322,-577.04 1135,-577.04 1135,-577.04 1129,-577.04 1123,-571.04 1123,-565.04 1123,-565.04 1123,-241.02 1123,-241.02 1123,-235.02 1129,-229.02 1135,-229.02"/>
<text text-anchor="start" x="1131" y="-563.64" font-family="Helvetica,sans-Serif" font-weight="bold" font-size="13.00">3. Shared spine (models, evidence, scoring, explain, critic)</text>
</g>
<g id="clust4" class="cluster">
<title>cluster_modules</title>
<path fill="#fafafa" stroke="#666666" d="M2383,-220.04C2383,-220.04 2748,-220.04 2748,-220.04 2754,-220.04 2760,-226.04 2760,-232.04 2760,-232.04 2760,-847.95 2760,-847.95 2760,-853.95 2754,-859.95 2748,-859.95 2748,-859.95 2383,-859.95 2383,-859.95 2377,-859.95 2371,-853.95 2371,-847.95 2371,-847.95 2371,-232.04 2371,-232.04 2371,-226.04 2377,-220.04 2383,-220.04"/>
<text text-anchor="start" x="2379" y="-846.55" font-family="Helvetica,sans-Serif" font-weight="bold" font-size="13.00">4. Module logic (CS1 / CS2 public · CS3 / CS4 client)</text>
</g>
<g id="clust5" class="cluster">
<title>cluster_outputs</title>
<path fill="#f3fbf2" stroke="#666666" d="M2809,-213.3C2809,-213.3 2996,-213.3 2996,-213.3 3002,-213.3 3008,-219.3 3008,-225.3 3008,-225.3 3008,-942.26 3008,-942.26 3008,-948.26 3002,-954.26 2996,-954.26 2996,-954.26 2809,-954.26 2809,-954.26 2803,-954.26 2797,-948.26 2797,-942.26 2797,-942.26 2797,-225.3 2797,-225.3 2797,-219.3 2803,-213.3 2809,-213.3"/>
<text text-anchor="start" x="2805" y="-940.86" font-family="Helvetica,sans-Serif" font-weight="bold" font-size="13.00">5. User&#45;facing outputs</text>
</g>
<g id="clust6" class="cluster">
<title>cluster_review</title>
<path fill="#fffbe6" stroke="#666666" d="M3086.5,-563.57C3086.5,-563.57 4035,-563.57 4035,-563.57 4041,-563.57 4047,-569.57 4047,-575.57 4047,-575.57 4047,-861.43 4047,-861.43 4047,-867.43 4041,-873.43 4035,-873.43 4035,-873.43 3086.5,-873.43 3086.5,-873.43 3080.5,-873.43 3074.5,-867.43 3074.5,-861.43 3074.5,-861.43 3074.5,-575.57 3074.5,-575.57 3074.5,-569.57 3080.5,-563.57 3086.5,-563.57"/>
<text text-anchor="start" x="3082.5" y="-860.03" font-family="Helvetica,sans-Serif" font-weight="bold" font-size="13.00">6. Human&#45;in&#45;the&#45;loop review</text>
</g>
<g id="clust7" class="cluster">
<title>cluster_feedback</title>
<path fill="#fbf3ff" stroke="#666666" d="M3057,-67.36C3057,-67.36 3255,-67.36 3255,-67.36 3261,-67.36 3267,-73.36 3267,-79.36 3267,-79.36 3267,-522.38 3267,-522.38 3267,-528.38 3261,-534.38 3255,-534.38 3255,-534.38 3057,-534.38 3057,-534.38 3051,-534.38 3045,-528.38 3045,-522.38 3045,-522.38 3045,-79.36 3045,-79.36 3045,-73.36 3051,-67.36 3057,-67.36"/>
<text text-anchor="start" x="3053" y="-520.98" font-family="Helvetica,sans-Serif" font-weight="bold" font-size="13.00">7. Feedback + learning loop</text>
</g>
<!-- src_edgar -->
<g id="node1" class="node">
<title>src_edgar</title>
<path fill="#d6e9ff" stroke="black" d="M186,-891.19C186,-893.4 160,-895.19 128,-895.19 96,-895.19 70,-893.4 70,-891.19 70,-891.19 70,-855.19 70,-855.19 70,-852.98 96,-851.19 128,-851.19 160,-851.19 186,-852.98 186,-855.19 186,-855.19 186,-891.19 186,-891.19"/>
<path fill="none" stroke="black" d="M186,-891.19C186,-888.98 160,-887.19 128,-887.19 96,-887.19 70,-888.98 70,-891.19"/>
<text text-anchor="middle" x="128" y="-876.39" font-family="Helvetica,sans-Serif" font-size="11.00">SEC EDGAR filings</text>
<text text-anchor="middle" x="128" y="-864.39" font-family="Helvetica,sans-Serif" font-size="11.00">(10&#45;K, 8&#45;K, S&#45;1)</text>
</g>
<!-- ing_adapter -->
<g id="node7" class="node">
<title>ing_adapter</title>
<polygon fill="#e8e8e8" stroke="black" points="457,-474.19 307,-474.19 307,-438.19 457,-438.19 457,-474.19"/>
<text text-anchor="middle" x="382" y="-459.39" font-family="Helvetica,sans-Serif" font-size="11.00">Source adapter</text>
<text text-anchor="middle" x="382" y="-447.39" font-family="Helvetica,sans-Serif" font-size="11.00">(pluggable, rate&#45;limited)</text>
</g>
<!-- src_edgar&#45;&gt;ing_adapter -->
<g id="edge1" class="edge">
<title>src_edgar&#45;&gt;ing_adapter</title>
<path fill="none" stroke="#333333" d="M186.27,-873.19C261.26,-873.19 382,-873.19 382,-873.19 382,-873.19 382,-484.38 382,-484.38"/>
<polygon fill="#333333" stroke="#333333" points="385.5,-484.38 382,-474.38 378.5,-484.38 385.5,-484.38"/>
</g>
<!-- src_news -->
<g id="node2" class="node">
<title>src_news</title>
<path fill="#d6e9ff" stroke="black" d="M197,-736.19C197,-738.4 166.07,-740.19 128,-740.19 89.93,-740.19 59,-738.4 59,-736.19 59,-736.19 59,-700.19 59,-700.19 59,-697.98 89.93,-696.19 128,-696.19 166.07,-696.19 197,-697.98 197,-700.19 197,-700.19 197,-736.19 197,-736.19"/>
<path fill="none" stroke="black" d="M197,-736.19C197,-733.98 166.07,-732.19 128,-732.19 89.93,-732.19 59,-733.98 59,-736.19"/>
<text text-anchor="middle" x="128" y="-721.39" font-family="Helvetica,sans-Serif" font-size="11.00">News feeds</text>
<text text-anchor="middle" x="128" y="-709.39" font-family="Helvetica,sans-Serif" font-size="11.00">(RSS / press releases)</text>
</g>
<!-- src_news&#45;&gt;ing_adapter -->
<g id="edge2" class="edge">
<title>src_news&#45;&gt;ing_adapter</title>
<path fill="none" stroke="#333333" d="M186,-697.2C186,-636.83 186,-466.99 186,-466.99 186,-466.99 296.78,-466.99 296.78,-466.99"/>
<polygon fill="#333333" stroke="#333333" points="296.78,-470.49 306.78,-466.99 296.78,-463.49 296.78,-470.49"/>
</g>
<!-- src_market -->
<g id="node3" class="node">
<title>src_market</title>
<path fill="#d6e9ff" stroke="black" stroke-width="2" stroke-dasharray="5,2" d="M180,-581.19C180,-583.4 156.69,-585.19 128,-585.19 99.31,-585.19 76,-583.4 76,-581.19 76,-581.19 76,-545.19 76,-545.19 76,-542.98 99.31,-541.19 128,-541.19 156.69,-541.19 180,-542.98 180,-545.19 180,-545.19 180,-581.19 180,-581.19"/>
<path fill="none" stroke="black" stroke-width="2" stroke-dasharray="5,2" d="M180,-581.19C180,-578.98 156.69,-577.19 128,-577.19 99.31,-577.19 76,-578.98 76,-581.19"/>
<text text-anchor="middle" x="128" y="-566.39" font-family="Helvetica,sans-Serif" font-size="11.00">Market data</text>
<text text-anchor="middle" x="128" y="-554.39" font-family="Helvetica,sans-Serif" font-size="11.00">(prices, indices)</text>
</g>
<!-- src_market&#45;&gt;ing_adapter -->
<g id="edge3" class="edge">
<title>src_market&#45;&gt;ing_adapter</title>
<path fill="none" stroke="#333333" d="M128,-541.01C128,-510.62 128,-459.79 128,-459.79 128,-459.79 296.82,-459.79 296.82,-459.79"/>
<polygon fill="#333333" stroke="#333333" points="296.82,-463.29 306.82,-459.79 296.82,-456.29 296.82,-463.29"/>
</g>
<!-- src_xbrl -->
<g id="node4" class="node">
<title>src_xbrl</title>
<path fill="#d6e9ff" stroke="black" d="M200,-426.19C200,-428.4 167.73,-430.19 128,-430.19 88.27,-430.19 56,-428.4 56,-426.19 56,-426.19 56,-390.19 56,-390.19 56,-387.98 88.27,-386.19 128,-386.19 167.73,-386.19 200,-387.98 200,-390.19 200,-390.19 200,-426.19 200,-426.19"/>
<path fill="none" stroke="black" d="M200,-426.19C200,-423.98 167.73,-422.19 128,-422.19 88.27,-422.19 56,-423.98 56,-426.19"/>
<text text-anchor="middle" x="128" y="-411.39" font-family="Helvetica,sans-Serif" font-size="11.00">XBRL peer benchmarks</text>
<text text-anchor="middle" x="128" y="-399.39" font-family="Helvetica,sans-Serif" font-size="11.00">(public filings)</text>
</g>
<!-- src_xbrl&#45;&gt;ing_adapter -->
<g id="edge4" class="edge">
<title>src_xbrl&#45;&gt;ing_adapter</title>
<path fill="none" stroke="#333333" d="M192,-429.09C192,-440.6 192,-452.59 192,-452.59 192,-452.59 296.91,-452.59 296.91,-452.59"/>
<polygon fill="#333333" stroke="#333333" points="296.91,-456.09 306.91,-452.59 296.91,-449.09 296.91,-456.09"/>
</g>
<!-- src_upload -->
<g id="node5" class="node">
<title>src_upload</title>
<path fill="#ffe3d6" stroke="black" d="M210,-272.19C210,-274.4 173.25,-276.19 128,-276.19 82.75,-276.19 46,-274.4 46,-272.19 46,-272.19 46,-236.19 46,-236.19 46,-233.98 82.75,-232.19 128,-232.19 173.25,-232.19 210,-233.98 210,-236.19 210,-236.19 210,-272.19 210,-272.19"/>
<path fill="none" stroke="black" d="M210,-272.19C210,-269.98 173.25,-268.19 128,-268.19 82.75,-268.19 46,-269.98 46,-272.19"/>
<text text-anchor="middle" x="128" y="-257.39" font-family="Helvetica,sans-Serif" font-size="11.00">Client uploads</text>
<text text-anchor="middle" x="128" y="-245.39" font-family="Helvetica,sans-Serif" font-size="11.00">(AR / AP / inventory / KPIs)</text>
</g>
<!-- src_upload&#45;&gt;ing_adapter -->
<g id="edge5" class="edge">
<title>src_upload&#45;&gt;ing_adapter</title>
<path fill="none" stroke="#333333" d="M205,-274.65C205,-323.98 205,-445.39 205,-445.39 205,-445.39 296.94,-445.39 296.94,-445.39"/>
<polygon fill="#333333" stroke="#333333" points="296.94,-448.89 306.94,-445.39 296.94,-441.89 296.94,-448.89"/>
</g>
<!-- src_kpi -->
<g id="node6" class="node">
<title>src_kpi</title>
<path fill="#ffe3d6" stroke="black" d="M187.5,-117.19C187.5,-119.4 160.83,-121.19 128,-121.19 95.17,-121.19 68.5,-119.4 68.5,-117.19 68.5,-117.19 68.5,-81.19 68.5,-81.19 68.5,-78.98 95.17,-77.19 128,-77.19 160.83,-77.19 187.5,-78.98 187.5,-81.19 187.5,-81.19 187.5,-117.19 187.5,-117.19"/>
<path fill="none" stroke="black" d="M187.5,-117.19C187.5,-114.98 160.83,-113.19 128,-113.19 95.17,-113.19 68.5,-114.98 68.5,-117.19"/>
<text text-anchor="middle" x="128" y="-102.39" font-family="Helvetica,sans-Serif" font-size="11.00">Deal KPI plans</text>
<text text-anchor="middle" x="128" y="-90.39" font-family="Helvetica,sans-Serif" font-size="11.00">(targets + curves)</text>
</g>
<!-- src_kpi&#45;&gt;ing_adapter -->
<g id="edge6" class="edge">
<title>src_kpi&#45;&gt;ing_adapter</title>
<path fill="none" stroke="#333333" d="M187.55,-99.19C262.63,-99.19 382,-99.19 382,-99.19 382,-99.19 382,-427.99 382,-427.99"/>
<polygon fill="#333333" stroke="#333333" points="378.5,-427.99 382,-437.99 385.5,-427.99 378.5,-427.99"/>
</g>
<!-- ing_fetch -->
<g id="node8" class="node">
<title>ing_fetch</title>
<polygon fill="#e8e8e8" stroke="black" points="666,-474.19 522,-474.19 522,-438.19 666,-438.19 666,-474.19"/>
<text text-anchor="middle" x="594" y="-459.39" font-family="Helvetica,sans-Serif" font-size="11.00">Fetch + cache</text>
<text text-anchor="middle" x="594" y="-447.39" font-family="Helvetica,sans-Serif" font-size="11.00">(retrieved_at stamped)</text>
</g>
<!-- ing_adapter&#45;&gt;ing_fetch -->
<g id="edge7" class="edge">
<title>ing_adapter&#45;&gt;ing_fetch</title>
<path fill="none" stroke="#333333" d="M457.04,-456.19C457.04,-456.19 511.91,-456.19 511.91,-456.19"/>
<polygon fill="#333333" stroke="#333333" points="511.91,-459.69 521.91,-456.19 511.91,-452.69 511.91,-459.69"/>
</g>
<!-- ing_parse -->
<g id="node9" class="node">
<title>ing_parse</title>
<polygon fill="#e8e8e8" stroke="black" points="861.5,-474.19 730.5,-474.19 730.5,-438.19 861.5,-438.19 861.5,-474.19"/>
<text text-anchor="middle" x="796" y="-459.39" font-family="Helvetica,sans-Serif" font-size="11.00">Parse + normalise</text>
<text text-anchor="middle" x="796" y="-447.39" font-family="Helvetica,sans-Serif" font-size="11.00">(parsed_at stamped)</text>
</g>
<!-- ing_fetch&#45;&gt;ing_parse -->
<g id="edge8" class="edge">
<title>ing_fetch&#45;&gt;ing_parse</title>
<path fill="none" stroke="#333333" d="M666.07,-456.19C666.07,-456.19 720.35,-456.19 720.35,-456.19"/>
<polygon fill="#333333" stroke="#333333" points="720.35,-459.69 730.35,-456.19 720.35,-452.69 720.35,-459.69"/>
</g>
<!-- ing_chunk -->
<g id="node10" class="node">
<title>ing_chunk</title>
<polygon fill="#e8e8e8" stroke="black" points="1071.5,-474.19 926.5,-474.19 926.5,-438.19 1071.5,-438.19 1071.5,-474.19"/>
<text text-anchor="middle" x="999" y="-459.39" font-family="Helvetica,sans-Serif" font-size="11.00">Chunk + embed</text>
<text text-anchor="middle" x="999" y="-447.39" font-family="Helvetica,sans-Serif" font-size="11.00">(RAG index per source)</text>
</g>
<!-- ing_parse&#45;&gt;ing_chunk -->
<g id="edge9" class="edge">
<title>ing_parse&#45;&gt;ing_chunk</title>
<path fill="none" stroke="#333333" d="M861.63,-456.19C861.63,-456.19 916.22,-456.19 916.22,-456.19"/>
<polygon fill="#333333" stroke="#333333" points="916.22,-459.69 926.22,-456.19 916.22,-452.69 916.22,-459.69"/>
</g>
<!-- sp_canon -->
<g id="node11" class="node">
<title>sp_canon</title>
<polygon fill="#e8e8e8" stroke="black" points="1297,-474.19 1143,-474.19 1143,-438.19 1297,-438.19 1297,-474.19"/>
<text text-anchor="middle" x="1220" y="-459.39" font-family="Helvetica,sans-Serif" font-size="11.00">Canonical entities</text>
<text text-anchor="middle" x="1220" y="-447.39" font-family="Helvetica,sans-Serif" font-size="11.00">(Company, Deal, Person)</text>
</g>
<!-- ing_chunk&#45;&gt;sp_canon -->
<g id="edge10" class="edge">
<title>ing_chunk&#45;&gt;sp_canon</title>
<path fill="none" stroke="#333333" d="M1071.67,-456.19C1071.67,-456.19 1132.73,-456.19 1132.73,-456.19"/>
<polygon fill="#333333" stroke="#333333" points="1132.73,-459.69 1142.73,-456.19 1132.73,-452.69 1132.73,-459.69"/>
</g>
<!-- sp_evid -->
<g id="node12" class="node">
<title>sp_evid</title>
<polygon fill="#e8e8e8" stroke="black" points="1522,-474.19 1368,-474.19 1368,-438.19 1522,-438.19 1522,-474.19"/>
<text text-anchor="middle" x="1445" y="-459.39" font-family="Helvetica,sans-Serif" font-size="11.00">Evidence store</text>
<text text-anchor="middle" x="1445" y="-447.39" font-family="Helvetica,sans-Serif" font-size="11.00">(every claim is cite&#45;able)</text>
</g>
<!-- sp_canon&#45;&gt;sp_evid -->
<g id="edge11" class="edge">
<title>sp_canon&#45;&gt;sp_evid</title>
<path fill="none" stroke="#333333" d="M1297.12,-456.19C1297.12,-456.19 1357.98,-456.19 1357.98,-456.19"/>
<polygon fill="#333333" stroke="#333333" points="1357.98,-459.69 1367.98,-456.19 1357.98,-452.69 1357.98,-459.69"/>
</g>
<!-- sp_signals -->
<g id="node13" class="node">
<title>sp_signals</title>
<polygon fill="#e8e8e8" stroke="black" points="1743.5,-474.19 1586.5,-474.19 1586.5,-438.19 1743.5,-438.19 1743.5,-474.19"/>
<text text-anchor="middle" x="1665" y="-459.39" font-family="Helvetica,sans-Serif" font-size="11.00">Signal handlers</text>
<text text-anchor="middle" x="1665" y="-447.39" font-family="Helvetica,sans-Serif" font-size="11.00">(declarative, per domain)</text>
</g>
<!-- sp_evid&#45;&gt;sp_signals -->
<g id="edge12" class="edge">
<title>sp_evid&#45;&gt;sp_signals</title>
<path fill="none" stroke="#333333" d="M1522.25,-456.19C1522.25,-456.19 1576.44,-456.19 1576.44,-456.19"/>
<polygon fill="#333333" stroke="#333333" points="1576.44,-459.69 1586.44,-456.19 1576.44,-452.69 1576.44,-459.69"/>
</g>
<!-- sp_score -->
<g id="node14" class="node">
<title>sp_score</title>
<polygon fill="#e8e8e8" stroke="black" points="1941.5,-474.19 1808.5,-474.19 1808.5,-438.19 1941.5,-438.19 1941.5,-474.19"/>
<text text-anchor="middle" x="1875" y="-459.39" font-family="Helvetica,sans-Serif" font-size="11.00">Weighted scoring</text>
<text text-anchor="middle" x="1875" y="-447.39" font-family="Helvetica,sans-Serif" font-size="11.00">(tunable per module)</text>
</g>
<!-- sp_signals&#45;&gt;sp_score -->
<g id="edge13" class="edge">
<title>sp_signals&#45;&gt;sp_score</title>
<path fill="none" stroke="#333333" d="M1743.79,-456.19C1743.79,-456.19 1798.48,-456.19 1798.48,-456.19"/>
<polygon fill="#333333" stroke="#333333" points="1798.48,-459.69 1808.48,-456.19 1798.48,-452.69 1798.48,-459.69"/>
</g>
<!-- sp_explain -->
<g id="node15" class="node">
<title>sp_explain</title>
<polygon fill="#e8e8e8" stroke="black" points="2129,-474.19 2007,-474.19 2007,-438.19 2129,-438.19 2129,-474.19"/>
<text text-anchor="middle" x="2068" y="-459.39" font-family="Helvetica,sans-Serif" font-size="11.00">Evidence&#45;grounded</text>
<text text-anchor="middle" x="2068" y="-447.39" font-family="Helvetica,sans-Serif" font-size="11.00">explanation layer</text>
</g>
<!-- sp_score&#45;&gt;sp_explain -->
<g id="edge14" class="edge">
<title>sp_score&#45;&gt;sp_explain</title>
<path fill="none" stroke="#333333" d="M1941.69,-456.19C1941.69,-456.19 1996.81,-456.19 1996.81,-456.19"/>
<polygon fill="#333333" stroke="#333333" points="1996.81,-459.69 2006.81,-456.19 1996.81,-452.69 1996.81,-459.69"/>
</g>
<!-- sp_critic -->
<g id="node16" class="node">
<title>sp_critic</title>
<polygon fill="#e8e8e8" stroke="black" points="2320,-474.19 2194,-474.19 2194,-438.19 2320,-438.19 2320,-474.19"/>
<text text-anchor="middle" x="2257" y="-459.39" font-family="Helvetica,sans-Serif" font-size="11.00">Unsupported&#45;claims</text>
<text text-anchor="middle" x="2257" y="-447.39" font-family="Helvetica,sans-Serif" font-size="11.00">critic (blocks in CI)</text>
</g>
<!-- sp_explain&#45;&gt;sp_critic -->
<g id="edge15" class="edge">
<title>sp_explain&#45;&gt;sp_critic</title>
<path fill="none" stroke="#333333" d="M2129.1,-456.19C2129.1,-456.19 2183.84,-456.19 2183.84,-456.19"/>
<polygon fill="#333333" stroke="#333333" points="2183.84,-459.69 2193.84,-456.19 2183.84,-452.69 2183.84,-459.69"/>
</g>
<!-- m_cs1 -->
<g id="node18" class="node">
<title>m_cs1</title>
<polygon fill="#d6e9ff" stroke="black" points="2638,-478.19 2496,-478.19 2492,-474.19 2492,-434.19 2634,-434.19 2638,-438.19 2638,-478.19"/>
<polyline fill="none" stroke="black" points="2634,-474.19 2492,-474.19 "/>
<polyline fill="none" stroke="black" points="2634,-474.19 2634,-434.19 "/>
<polyline fill="none" stroke="black" points="2634,-474.19 2638,-478.19 "/>
<text text-anchor="middle" x="2565" y="-465.39" font-family="Helvetica,sans-Serif" font-size="11.00">CS1 — M&amp;A Origination</text>
<text text-anchor="middle" x="2565" y="-453.39" font-family="Helvetica,sans-Serif" font-size="11.00">public only · 12&#45;24m</text>
<text text-anchor="middle" x="2565" y="-441.39" font-family="Helvetica,sans-Serif" font-size="11.00">&gt;$1bn equity</text>
</g>
<!-- sp_critic&#45;&gt;m_cs1 -->
<g id="edge16" class="edge">
<title>sp_critic&#45;&gt;m_cs1</title>
<path fill="none" stroke="#333333" d="M2320.07,-456.19C2320.07,-456.19 2481.73,-456.19 2481.73,-456.19"/>
<polygon fill="#333333" stroke="#333333" points="2481.73,-459.69 2491.73,-456.19 2481.73,-452.69 2481.73,-459.69"/>
</g>
<!-- m_cs2 -->
<g id="node19" class="node">
<title>m_cs2</title>
<polygon fill="#d6e9ff" stroke="black" points="2650,-323.19 2484,-323.19 2480,-319.19 2480,-279.19 2646,-279.19 2650,-283.19 2650,-323.19"/>
<polyline fill="none" stroke="black" points="2646,-319.19 2480,-319.19 "/>
<polyline fill="none" stroke="black" points="2646,-319.19 2646,-279.19 "/>
<polyline fill="none" stroke="black" points="2646,-319.19 2650,-323.19 "/>
<text text-anchor="middle" x="2565" y="-310.39" font-family="Helvetica,sans-Serif" font-size="11.00">CS2 — Carve&#45;Out Detection</text>
<text text-anchor="middle" x="2565" y="-298.39" font-family="Helvetica,sans-Serif" font-size="11.00">public only · 6&#45;18m</text>
<text text-anchor="middle" x="2565" y="-286.39" font-family="Helvetica,sans-Serif" font-size="11.00">&gt;$750m equity</text>
</g>
<!-- sp_critic&#45;&gt;m_cs2 -->
<g id="edge17" class="edge">
<title>sp_critic&#45;&gt;m_cs2</title>
<path fill="none" stroke="#333333" d="M2320.18,-447.19C2387.96,-447.19 2486,-447.19 2486,-447.19 2486,-447.19 2486,-333.36 2486,-333.36"/>
<polygon fill="#333333" stroke="#333333" points="2489.5,-333.36 2486,-323.36 2482.5,-333.36 2489.5,-333.36"/>
</g>
<!-- m_cs3 -->
<g id="node20" class="node">
<title>m_cs3</title>
<polygon fill="#ffe3d6" stroke="black" points="2657.5,-757.19 2476.5,-757.19 2472.5,-753.19 2472.5,-721.19 2653.5,-721.19 2657.5,-725.19 2657.5,-757.19"/>
<polyline fill="none" stroke="black" points="2653.5,-753.19 2472.5,-753.19 "/>
<polyline fill="none" stroke="black" points="2653.5,-753.19 2653.5,-721.19 "/>
<polyline fill="none" stroke="black" points="2653.5,-753.19 2657.5,-757.19 "/>
<text text-anchor="middle" x="2565" y="-742.39" font-family="Helvetica,sans-Serif" font-size="11.00">CS3 — Post&#45;Deal Value Tracker</text>
<text text-anchor="middle" x="2565" y="-730.39" font-family="Helvetica,sans-Serif" font-size="11.00">client + public · 0&#45;24m</text>
</g>
<!-- sp_critic&#45;&gt;m_cs3 -->
<g id="edge18" class="edge">
<title>sp_critic&#45;&gt;m_cs3</title>
<path fill="none" stroke="#333333" d="M2257,-474.2C2257,-535.27 2257,-730.69 2257,-730.69 2257,-730.69 2462.17,-730.69 2462.17,-730.69"/>
<polygon fill="#333333" stroke="#333333" points="2462.17,-734.19 2472.17,-730.69 2462.17,-727.19 2462.17,-734.19"/>
</g>
<!-- m_cs4 -->
<g id="node21" class="node">
<title>m_cs4</title>
<polygon fill="#ffe3d6" stroke="black" points="2667,-620.19 2467,-620.19 2463,-616.19 2463,-584.19 2663,-584.19 2667,-588.19 2667,-620.19"/>
<polyline fill="none" stroke="black" points="2663,-616.19 2463,-616.19 "/>
<polyline fill="none" stroke="black" points="2663,-616.19 2663,-584.19 "/>
<polyline fill="none" stroke="black" points="2663,-616.19 2667,-620.19 "/>
<text text-anchor="middle" x="2565" y="-605.39" font-family="Helvetica,sans-Serif" font-size="11.00">CS4 — Working&#45;Capital Diagnostic</text>
<text text-anchor="middle" x="2565" y="-593.39" font-family="Helvetica,sans-Serif" font-size="11.00">client + XBRL peers · 3&#45;9m</text>
</g>
<!-- sp_critic&#45;&gt;m_cs4 -->
<g id="edge19" class="edge">
<title>sp_critic&#45;&gt;m_cs4</title>
<path fill="none" stroke="#333333" d="M2320.05,-465.19C2383.49,-465.19 2472,-465.19 2472,-465.19 2472,-465.19 2472,-574 2472,-574"/>
<polygon fill="#333333" stroke="#333333" points="2468.5,-574 2472,-584 2475.5,-574 2468.5,-574"/>
</g>
<!-- sp_llm -->
<g id="node17" class="node">
<title>sp_llm</title>
<polygon fill="#e8e8e8" stroke="black" points="1297,-332.19 1137,-332.19 1137,-288.19 1303,-288.19 1303,-326.19 1297,-332.19"/>
<polyline fill="none" stroke="black" points="1297,-332.19 1297,-326.19 "/>
<polyline fill="none" stroke="black" points="1303,-326.19 1297,-326.19 "/>
<text text-anchor="middle" x="1220" y="-319.39" font-family="Helvetica,sans-Serif" font-size="11.00">LLM router</text>
<text text-anchor="middle" x="1220" y="-307.39" font-family="Helvetica,sans-Serif" font-size="11.00">Haiku: extract / classify</text>
<text text-anchor="middle" x="1220" y="-295.39" font-family="Helvetica,sans-Serif" font-size="11.00">Sonnet: synthesis / explain</text>
</g>
<!-- out_queue -->
<g id="node22" class="node">
<title>out_queue</title>
<polygon fill="#e4f7e1" stroke="black" points="2975,-303.19 2972,-307.19 2951,-307.19 2948,-303.19 2829,-303.19 2829,-267.19 2975,-267.19 2975,-303.19"/>
<text text-anchor="middle" x="2902" y="-288.39" font-family="Helvetica,sans-Serif" font-size="11.00">Ranked situation queue</text>
<text text-anchor="middle" x="2902" y="-276.39" font-family="Helvetica,sans-Serif" font-size="11.00">(score + confidence)</text>
</g>
<!-- m_cs1&#45;&gt;out_queue -->
<g id="edge20" class="edge">
<title>m_cs1&#45;&gt;out_queue</title>
<path fill="none" stroke="#333333" d="M2638.33,-449.69C2719.8,-449.69 2840,-449.69 2840,-449.69 2840,-449.69 2840,-313.42 2840,-313.42"/>
<polygon fill="#333333" stroke="#333333" points="2843.5,-313.42 2840,-303.42 2836.5,-313.42 2843.5,-313.42"/>
</g>
<!-- out_heat -->
<g id="node23" class="node">
<title>out_heat</title>
<polygon fill="#e4f7e1" stroke="black" points="2954,-440.19 2951,-444.19 2930,-444.19 2927,-440.19 2850,-440.19 2850,-404.19 2954,-404.19 2954,-440.19"/>
<text text-anchor="middle" x="2902" y="-425.39" font-family="Helvetica,sans-Serif" font-size="11.00">Sector heatmap</text>
<text text-anchor="middle" x="2902" y="-413.39" font-family="Helvetica,sans-Serif" font-size="11.00">(CS1 / CS2)</text>
</g>
<!-- m_cs1&#45;&gt;out_heat -->
<g id="edge22" class="edge">
<title>m_cs1&#45;&gt;out_heat</title>
<path fill="none" stroke="#333333" d="M2638.12,-459.19C2737.24,-459.19 2902,-459.19 2902,-459.19 2902,-459.19 2902,-450.26 2902,-450.26"/>
<polygon fill="#333333" stroke="#333333" points="2905.5,-450.26 2902,-440.26 2898.5,-450.26 2905.5,-450.26"/>
</g>
<!-- out_expl -->
<g id="node26" class="node">
<title>out_expl</title>
<polygon fill="#e4f7e1" stroke="black" points="2988.5,-577.19 2985.5,-581.19 2964.5,-581.19 2961.5,-577.19 2815.5,-577.19 2815.5,-541.19 2988.5,-541.19 2988.5,-577.19"/>
<text text-anchor="middle" x="2902" y="-562.39" font-family="Helvetica,sans-Serif" font-size="11.00">Per&#45;item explanation</text>
<text text-anchor="middle" x="2902" y="-550.39" font-family="Helvetica,sans-Serif" font-size="11.00">+ evidence panel + caveats</text>
</g>
<!-- m_cs1&#45;&gt;out_expl -->
<g id="edge26" class="edge">
<title>m_cs1&#45;&gt;out_expl</title>
<path fill="none" stroke="#333333" d="M2638.07,-468.69C2713.42,-468.69 2820,-468.69 2820,-468.69 2820,-468.69 2820,-530.88 2820,-530.88"/>
<polygon fill="#333333" stroke="#333333" points="2816.5,-530.87 2820,-540.88 2823.5,-530.88 2816.5,-530.87"/>
</g>
<!-- m_cs2&#45;&gt;out_queue -->
<g id="edge21" class="edge">
<title>m_cs2&#45;&gt;out_queue</title>
<path fill="none" stroke="#333333" d="M2650.04,-291.19C2650.04,-291.19 2818.99,-291.19 2818.99,-291.19"/>
<polygon fill="#333333" stroke="#333333" points="2818.99,-294.69 2828.99,-291.19 2818.99,-287.69 2818.99,-294.69"/>
</g>
<!-- m_cs2&#45;&gt;out_heat -->
<g id="edge23" class="edge">
<title>m_cs2&#45;&gt;out_heat</title>
<path fill="none" stroke="#333333" d="M2644,-323.28C2644,-356.94 2644,-417.19 2644,-417.19 2644,-417.19 2839.79,-417.19 2839.79,-417.19"/>
<polygon fill="#333333" stroke="#333333" points="2839.79,-420.69 2849.79,-417.19 2839.79,-413.69 2839.79,-420.69"/>
</g>
<!-- m_cs2&#45;&gt;out_expl -->
<g id="edge27" class="edge">
<title>m_cs2&#45;&gt;out_expl</title>
<path fill="none" stroke="#333333" d="M2650.13,-313.19C2725.96,-313.19 2825,-313.19 2825,-313.19 2825,-313.19 2825,-531.1 2825,-531.1"/>
<polygon fill="#333333" stroke="#333333" points="2821.5,-531.1 2825,-541.1 2828.5,-531.1 2821.5,-531.1"/>
</g>
<!-- out_kpi -->
<g id="node24" class="node">
<title>out_kpi</title>
<polygon fill="#e4f7e1" stroke="black" points="2993.5,-851.19 2990.5,-855.19 2969.5,-855.19 2966.5,-851.19 2810.5,-851.19 2810.5,-815.19 2993.5,-815.19 2993.5,-851.19"/>
<text text-anchor="middle" x="2902" y="-836.39" font-family="Helvetica,sans-Serif" font-size="11.00">KPI trend&#45;band charts</text>
<text text-anchor="middle" x="2902" y="-824.39" font-family="Helvetica,sans-Serif" font-size="11.00">(CS3: in / above / below band)</text>
</g>
<!-- m_cs3&#45;&gt;out_kpi -->
<g id="edge24" class="edge">
<title>m_cs3&#45;&gt;out_kpi</title>
<path fill="none" stroke="#333333" d="M2657.53,-747.69C2757.3,-747.69 2902,-747.69 2902,-747.69 2902,-747.69 2902,-805.06 2902,-805.06"/>
<polygon fill="#333333" stroke="#333333" points="2898.5,-805.06 2902,-815.06 2905.5,-805.06 2898.5,-805.06"/>
</g>
<!-- m_cs3&#45;&gt;out_expl -->
<g id="edge28" class="edge">
<title>m_cs3&#45;&gt;out_expl</title>
<path fill="none" stroke="#333333" d="M2657.6,-729.69C2699.16,-729.69 2739,-729.69 2739,-729.69 2739,-729.69 2739,-565.19 2739,-565.19 2739,-565.19 2805.25,-565.19 2805.25,-565.19"/>
<polygon fill="#333333" stroke="#333333" points="2805.25,-568.69 2815.25,-565.19 2805.25,-561.69 2805.25,-568.69"/>
</g>
<!-- out_wc -->
<g id="node25" class="node">
<title>out_wc</title>
<polygon fill="#e4f7e1" stroke="black" points="2985.5,-714.19 2982.5,-718.19 2961.5,-718.19 2958.5,-714.19 2818.5,-714.19 2818.5,-678.19 2985.5,-678.19 2985.5,-714.19"/>
<text text-anchor="middle" x="2902" y="-699.39" font-family="Helvetica,sans-Serif" font-size="11.00">Working&#45;capital diagnostic</text>
<text text-anchor="middle" x="2902" y="-687.39" font-family="Helvetica,sans-Serif" font-size="11.00">(DSO / DPO / DIO vs peers)</text>
</g>
<!-- m_cs4&#45;&gt;out_wc -->
<g id="edge25" class="edge">
<title>m_cs4&#45;&gt;out_wc</title>
<path fill="none" stroke="#333333" d="M2663,-620.22C2663,-645.17 2663,-687.19 2663,-687.19 2663,-687.19 2808.41,-687.19 2808.41,-687.19"/>
<polygon fill="#333333" stroke="#333333" points="2808.41,-690.69 2818.41,-687.19 2808.41,-683.69 2808.41,-690.69"/>
</g>
<!-- m_cs4&#45;&gt;out_expl -->
<g id="edge29" class="edge">
<title>m_cs4&#45;&gt;out_expl</title>
<path fill="none" stroke="#333333" d="M2659,-583.94C2659,-570.01 2659,-553.19 2659,-553.19 2659,-553.19 2805.3,-553.19 2805.3,-553.19"/>
<polygon fill="#333333" stroke="#333333" points="2805.3,-556.69 2815.3,-553.19 2805.3,-549.69 2805.3,-556.69"/>
</g>
<!-- rv_queue -->
<g id="node27" class="node">
<title>rv_queue</title>
<polygon fill="#fff5ba" stroke="black" points="3222,-712.19 3088,-712.19 3088,-676.19 3222,-676.19 3222,-712.19"/>
<text text-anchor="middle" x="3155" y="-697.39" font-family="Helvetica,sans-Serif" font-size="11.00">Human review queue</text>
<text text-anchor="middle" x="3155" y="-685.39" font-family="Helvetica,sans-Serif" font-size="11.00">(analyst triage)</text>
</g>
<!-- out_queue&#45;&gt;rv_queue -->
<g id="edge30" class="edge">
<title>out_queue&#45;&gt;rv_queue</title>
<path fill="none" stroke="#333333" d="M2975.35,-298.69C3003.94,-298.69 3030,-298.69 3030,-298.69 3030,-298.69 3030,-689.52 3030,-689.52 3030,-689.52 3077.74,-689.52 3077.74,-689.52"/>
<polygon fill="#333333" stroke="#333333" points="3077.74,-693.02 3087.74,-689.52 3077.74,-686.02 3077.74,-693.02"/>
</g>
<!-- out_kpi&#45;&gt;rv_queue -->
<g id="edge31" class="edge">
<title>out_kpi&#45;&gt;rv_queue</title>
<path fill="none" stroke="#333333" d="M2993.7,-833.19C3066.1,-833.19 3155,-833.19 3155,-833.19 3155,-833.19 3155,-722.36 3155,-722.36"/>
<polygon fill="#333333" stroke="#333333" points="3158.5,-722.36 3155,-712.36 3151.5,-722.36 3158.5,-722.36"/>
</g>
<!-- out_wc&#45;&gt;rv_queue -->
<g id="edge32" class="edge">
<title>out_wc&#45;&gt;rv_queue</title>
<path fill="none" stroke="#333333" d="M2985.54,-700.86C2985.54,-700.86 3077.94,-700.86 3077.94,-700.86"/>
<polygon fill="#333333" stroke="#333333" points="3077.94,-704.36 3087.94,-700.86 3077.94,-697.36 3077.94,-704.36"/>
</g>
<!-- out_expl&#45;&gt;rv_queue -->
<g id="edge33" class="edge">
<title>out_expl&#45;&gt;rv_queue</title>
<path fill="none" stroke="#333333" d="M2988.67,-559.19C3054.22,-559.19 3133,-559.19 3133,-559.19 3133,-559.19 3133,-665.98 3133,-665.98"/>
<polygon fill="#333333" stroke="#333333" points="3129.5,-665.98 3133,-675.98 3136.5,-665.98 3129.5,-665.98"/>
</g>
<!-- rv_gate -->
<g id="node28" class="node">
<title>rv_gate</title>
<polygon fill="#fff5ba" stroke="black" points="3560,-738.19 3434,-694.19 3560,-650.19 3686,-694.19 3560,-738.19"/>
<text text-anchor="middle" x="3560" y="-703.39" font-family="Helvetica,sans-Serif" font-size="11.00">Approve?</text>
<text text-anchor="middle" x="3560" y="-691.39" font-family="Helvetica,sans-Serif" font-size="11.00">requires reviewer +</text>
<text text-anchor="middle" x="3560" y="-679.39" font-family="Helvetica,sans-Serif" font-size="11.00">ts + reason</text>
</g>
<!-- rv_queue&#45;&gt;rv_gate -->
<g id="edge34" class="edge">
<title>rv_queue&#45;&gt;rv_gate</title>
<path fill="none" stroke="#333333" d="M3222.33,-694.19C3222.33,-694.19 3423.94,-694.19 3423.94,-694.19"/>
<polygon fill="#333333" stroke="#333333" points="3423.94,-697.69 3433.94,-694.19 3423.94,-690.69 3423.94,-697.69"/>
</g>
<!-- rv_out -->
<g id="node29" class="node">
<title>rv_out</title>
<polygon fill="#e4f7e1" stroke="black" points="4033,-712.19 3867,-712.19 3867,-676.19 4033,-676.19 4033,-712.19"/>
<text text-anchor="middle" x="3950" y="-697.39" font-family="Helvetica,sans-Serif" font-size="11.00">Approved recommendation</text>
<text text-anchor="middle" x="3950" y="-685.39" font-family="Helvetica,sans-Serif" font-size="11.00">(surfaced to business)</text>
</g>
<!-- rv_gate&#45;&gt;rv_out -->
<g id="edge35" class="edge">
<title>rv_gate&#45;&gt;rv_out</title>
<path fill="none" stroke="#333333" d="M3686.08,-694.19C3686.08,-694.19 3856.77,-694.19 3856.77,-694.19"/>
<polygon fill="#333333" stroke="#333333" points="3856.77,-697.69 3866.77,-694.19 3856.77,-690.69 3856.77,-697.69"/>
</g>
<!-- fb_labels -->
<g id="node30" class="node">
<title>fb_labels</title>
<polygon fill="#f0d6ff" stroke="black" points="3223.5,-431.19 3086.5,-431.19 3086.5,-395.19 3223.5,-395.19 3223.5,-431.19"/>
<text text-anchor="middle" x="3155" y="-416.39" font-family="Helvetica,sans-Serif" font-size="11.00">Reviewer labels</text>
<text text-anchor="middle" x="3155" y="-404.39" font-family="Helvetica,sans-Serif" font-size="11.00">(accept / edit / reject)</text>
</g>
<!-- rv_gate&#45;&gt;fb_labels -->
<g id="edge36" class="edge">
<title>rv_gate&#45;&gt;fb_labels</title>
<path fill="none" stroke="#8e44ad" stroke-width="1.4" stroke-dasharray="5,2" d="M3522.68,-663.19C3426.56,-663.19 3178,-663.19 3178,-663.19 3178,-663.19 3178,-441.57 3178,-441.57"/>
<polygon fill="#8e44ad" stroke="#8e44ad" stroke-width="1.4" points="3181.5,-441.57 3178,-431.57 3174.5,-441.57 3181.5,-441.57"/>
</g>
<!-- fb_tune -->
<g id="node31" class="node">
<title>fb_tune</title>
<polygon fill="#f0d6ff" stroke="black" points="3201.5,-294.19 3108.5,-294.19 3108.5,-258.19 3201.5,-258.19 3201.5,-294.19"/>
<text text-anchor="middle" x="3155" y="-279.39" font-family="Helvetica,sans-Serif" font-size="11.00">Weight tuning</text>
<text text-anchor="middle" x="3155" y="-267.39" font-family="Helvetica,sans-Serif" font-size="11.00">+ calibration</text>
</g>
<!-- fb_labels&#45;&gt;fb_tune -->
<g id="edge37" class="edge">
<title>fb_labels&#45;&gt;fb_tune</title>
<path fill="none" stroke="#8e44ad" stroke-width="1.4" stroke-dasharray="5,2" d="M3155,-395C3155,-395 3155,-304.46 3155,-304.46"/>
<polygon fill="#8e44ad" stroke="#8e44ad" stroke-width="1.4" points="3158.5,-304.46 3155,-294.46 3151.5,-304.46 3158.5,-304.46"/>
</g>
<!-- fb_cover -->
<g id="node32" class="node">
<title>fb_cover</title>
<polygon fill="#f0d6ff" stroke="black" points="3244.5,-157.19 3065.5,-157.19 3065.5,-121.19 3244.5,-121.19 3244.5,-157.19"/>
<text text-anchor="middle" x="3155" y="-142.39" font-family="Helvetica,sans-Serif" font-size="11.00">Coverage + label dashboards</text>
<text text-anchor="middle" x="3155" y="-130.39" font-family="Helvetica,sans-Serif" font-size="11.00">(/eval)</text>
</g>
<!-- fb_labels&#45;&gt;fb_cover -->
<g id="edge39" class="edge">
<title>fb_labels&#45;&gt;fb_cover</title>
<path fill="none" stroke="#8e44ad" stroke-width="1.4" stroke-dasharray="5,2" d="M3213,-394.79C3213,-394.79 3213,-167.51 3213,-167.51"/>
<polygon fill="#8e44ad" stroke="#8e44ad" stroke-width="1.4" points="3216.5,-167.51 3213,-157.51 3209.5,-167.51 3216.5,-167.51"/>
</g>
<!-- fb_tune&#45;&gt;sp_score -->
<g id="edge38" class="edge">
<title>fb_tune&#45;&gt;sp_score</title>
<path fill="none" stroke="#8e44ad" stroke-width="1.4" stroke-dasharray="5,2" d="M3108.31,-262.69C2878.1,-262.69 1875,-262.69 1875,-262.69 1875,-262.69 1875,-427.99 1875,-427.99"/>
<polygon fill="#8e44ad" stroke="#8e44ad" stroke-width="1.4" points="1871.5,-427.99 1875,-437.99 1878.5,-427.99 1871.5,-427.99"/>
</g>
<!-- legend -->
<g id="node33" class="node">
<title>legend</title>
<text text-anchor="start" x="3345" y="-2718.99" font-family="Helvetica,sans-Serif" font-weight="bold" font-size="14.00">Legend</text>
<polygon fill="#d6e9ff" stroke="transparent" points="3343,-2691.19 3343,-2710.19 3372,-2710.19 3372,-2691.19 3343,-2691.19"/>
<text text-anchor="start" x="3355" y="-2696.99" font-family="Helvetica,sans-Serif" font-size="14.00"> </text>
<text text-anchor="start" x="3376" y="-2696.99" font-family="Helvetica,sans-Serif" font-size="14.00">Public&#45;data scope (CS1 / CS2)</text>
<polygon fill="#ffe3d6" stroke="transparent" points="3343,-2670.19 3343,-2689.19 3372,-2689.19 3372,-2670.19 3343,-2670.19"/>
<text text-anchor="start" x="3355" y="-2675.99" font-family="Helvetica,sans-Serif" font-size="14.00"> </text>
<text text-anchor="start" x="3376" y="-2675.99" font-family="Helvetica,sans-Serif" font-size="14.00">Client&#45;data scope (CS3 / CS4)</text>
<polygon fill="#e8e8e8" stroke="transparent" points="3343,-2649.19 3343,-2668.19 3372,-2668.19 3372,-2649.19 3343,-2649.19"/>
<text text-anchor="start" x="3355" y="-2654.99" font-family="Helvetica,sans-Serif" font-size="14.00"> </text>
<text text-anchor="start" x="3376" y="-2654.99" font-family="Helvetica,sans-Serif" font-size="14.00">Shared spine / ingestion</text>
<polygon fill="#e4f7e1" stroke="transparent" points="3343,-2628.19 3343,-2647.19 3372,-2647.19 3372,-2628.19 3343,-2628.19"/>
<text text-anchor="start" x="3355" y="-2633.99" font-family="Helvetica,sans-Serif" font-size="14.00"> </text>
<text text-anchor="start" x="3376" y="-2633.99" font-family="Helvetica,sans-Serif" font-size="14.00">User&#45;facing output</text>
<polygon fill="#fff5ba" stroke="transparent" points="3343,-2607.19 3343,-2626.19 3372,-2626.19 3372,-2607.19 3343,-2607.19"/>
<text text-anchor="start" x="3355" y="-2612.99" font-family="Helvetica,sans-Serif" font-size="14.00"> </text>
<text text-anchor="start" x="3376" y="-2612.99" font-family="Helvetica,sans-Serif" font-size="14.00">Human&#45;in&#45;the&#45;loop</text>
<polygon fill="#f0d6ff" stroke="transparent" points="3343,-2586.19 3343,-2605.19 3372,-2605.19 3372,-2586.19 3343,-2586.19"/>
<text text-anchor="start" x="3355" y="-2591.99" font-family="Helvetica,sans-Serif" font-size="14.00"> </text>
<text text-anchor="start" x="3376" y="-2591.99" font-family="Helvetica,sans-Serif" font-size="14.00">Feedback / learning</text>
<text text-anchor="start" x="3352" y="-2570.99" font-family="Helvetica,sans-Serif" font-size="14.00">◇</text>
<text text-anchor="start" x="3376" y="-2570.99" font-family="Helvetica,sans-Serif" font-size="14.00">Diamond = HITL gate</text>
<text text-anchor="start" x="3345" y="-2549.99" font-family="Helvetica,sans-Serif" font-size="14.00">&#45; &#45; &#45;</text>
<text text-anchor="start" x="3376" y="-2549.99" font-family="Helvetica,sans-Serif" font-size="14.00">Dashed border = mocked/fixture source (no live feed yet)</text>
<text text-anchor="start" x="3345" y="-2528.99" font-family="Helvetica,sans-Serif" font-size="14.00">&#45; &#45; &#45;</text>
<text text-anchor="start" x="3376" y="-2528.99" font-family="Helvetica,sans-Serif" font-size="14.00">Purple dashed arrow = feedback path</text>
</g>
<!-- out_of_scope -->
<g id="node34" class="node">
<title>out_of_scope</title>
<polygon fill="#fadbd8" stroke="transparent" points="3368,-2036.19 3368,-2208.19 3752,-2208.19 3752,-2036.19 3368,-2036.19"/>
<text text-anchor="start" x="3373" y="-2192.99" font-family="Helvetica,sans-Serif" font-weight="bold" font-size="14.00">Explicitly OUT of scope for this PoC</text>
<text text-anchor="start" x="3373" y="-2170.99" font-family="Helvetica,sans-Serif" font-size="14.00">• SSO / enterprise identity</text>
<text text-anchor="start" x="3373" y="-2149.99" font-family="Helvetica,sans-Serif" font-size="14.00">• Production security hardening</text>
<text text-anchor="start" x="3373" y="-2128.99" font-family="Helvetica,sans-Serif" font-size="14.00">• Multi&#45;tenancy / row&#45;level isolation beyond scope tag</text>
<text text-anchor="start" x="3373" y="-2107.99" font-family="Helvetica,sans-Serif" font-size="14.00">• Mobile UI</text>
<text text-anchor="start" x="3373" y="-2086.99" font-family="Helvetica,sans-Serif" font-size="14.00">• Outbound automation (emails, CRM writes)</text>
<text text-anchor="start" x="3373" y="-2065.99" font-family="Helvetica,sans-Serif" font-size="14.00">• Paywall / ToS&#45;restricted scraping</text>
<text text-anchor="start" x="3373" y="-2044.99" font-family="Helvetica,sans-Serif" font-size="14.00">• Real client data (synthetic fixtures only)</text>
<polygon fill="none" stroke="black" points="3368,-2036.19 3368,-2208.19 3752,-2208.19 3752,-2036.19 3368,-2036.19"/>
</g>
<!-- legend&#45;&gt;out_of_scope -->
<!-- ai_map -->
<g id="node35" class="node">
<title>ai_map</title>
<polygon fill="#ffffff" stroke="transparent" points="3326,-1507.19 3326,-1721.19 3794,-1721.19 3794,-1507.19 3326,-1507.19"/>
<text text-anchor="start" x="3331" y="-1705.99" font-family="Helvetica,sans-Serif" font-weight="bold" font-size="14.00">AI / platform considerations → where they live</text>
<text text-anchor="start" x="3331" y="-1683.99" font-family="Helvetica,sans-Serif" font-size="14.00">RAG &amp; chunking</text>
<text text-anchor="start" x="3560" y="-1683.99" font-family="Helvetica,sans-Serif" font-size="14.00">Ingestion (step 2)</text>
<text text-anchor="start" x="3331" y="-1662.99" font-family="Helvetica,sans-Serif" font-size="14.00">LLM routing (Haiku / Sonnet)</text>
<text text-anchor="start" x="3560" y="-1662.99" font-family="Helvetica,sans-Serif" font-size="14.00">Shared spine (step 3)</text>
<text text-anchor="start" x="3331" y="-1641.99" font-family="Helvetica,sans-Serif" font-size="14.00">Evidence grounding + citations</text>
<text text-anchor="start" x="3560" y="-1641.99" font-family="Helvetica,sans-Serif" font-size="14.00">Evidence store + explain layer</text>
<text text-anchor="start" x="3331" y="-1620.99" font-family="Helvetica,sans-Serif" font-size="14.00">Unsupported&#45;claims critic</text>
<text text-anchor="start" x="3560" y="-1620.99" font-family="Helvetica,sans-Serif" font-size="14.00">Shared spine, blocks merge in CI</text>
<text text-anchor="start" x="3331" y="-1599.99" font-family="Helvetica,sans-Serif" font-size="14.00">Weighted, tunable scoring</text>
<text text-anchor="start" x="3560" y="-1599.99" font-family="Helvetica,sans-Serif" font-size="14.00">Shared spine + feedback loop</text>
<text text-anchor="start" x="3331" y="-1578.99" font-family="Helvetica,sans-Serif" font-size="14.00">HITL governance</text>
<text text-anchor="start" x="3560" y="-1578.99" font-family="Helvetica,sans-Serif" font-size="14.00">Review step (6)</text>
<text text-anchor="start" x="3331" y="-1557.99" font-family="Helvetica,sans-Serif" font-size="14.00">Offline&#45;default LLM client</text>
<text text-anchor="start" x="3560" y="-1557.99" font-family="Helvetica,sans-Serif" font-size="14.00">Tests + CI run deterministic</text>
<text text-anchor="start" x="3331" y="-1536.99" font-family="Helvetica,sans-Serif" font-size="14.00">Source adapters (pluggable)</text>
<text text-anchor="start" x="3560" y="-1536.99" font-family="Helvetica,sans-Serif" font-size="14.00">Ingestion (step 2)</text>
<text text-anchor="start" x="3331" y="-1515.99" font-family="Helvetica,sans-Serif" font-size="14.00">Data segregation (AST&#45;checked)</text>
<text text-anchor="start" x="3560" y="-1515.99" font-family="Helvetica,sans-Serif" font-size="14.00">Module boundary (step 4)</text>
<polygon fill="none" stroke="black" points="3326,-1507.19 3326,-1721.19 3794,-1721.19 3794,-1507.19 3326,-1507.19"/>
</g>
<!-- out_of_scope&#45;&gt;ai_map -->
<!-- controls -->
<g id="node36" class="node">
<title>controls</title>
<polygon fill="#ffffff" stroke="transparent" points="3396,-1021.19 3396,-1193.19 3724,-1193.19 3724,-1021.19 3396,-1021.19"/>
<text text-anchor="start" x="3401" y="-1177.99" font-family="Helvetica,sans-Serif" font-weight="bold" font-size="14.00">Quality controls shipped in the PoC</text>
<text text-anchor="start" x="3401" y="-1155.99" font-family="Helvetica,sans-Serif" font-size="14.00">• Every score cites ≥ 1 Evidence row</text>
<text text-anchor="start" x="3401" y="-1134.99" font-family="Helvetica,sans-Serif" font-size="14.00">• Unsupported&#45;claims check runs in CI</text>
<text text-anchor="start" x="3401" y="-1113.99" font-family="Helvetica,sans-Serif" font-size="14.00">• No approval without reviewer + ts + reason</text>
<text text-anchor="start" x="3401" y="-1092.99" font-family="Helvetica,sans-Serif" font-size="14.00">• Module imports enforced by AST test</text>
<text text-anchor="start" x="3401" y="-1071.99" font-family="Helvetica,sans-Serif" font-size="14.00">• Mocked sources flagged visibly in UI</text>
<text text-anchor="start" x="3401" y="-1050.99" font-family="Helvetica,sans-Serif" font-size="14.00">• Deterministic offline LLM in tests</text>
<text text-anchor="start" x="3401" y="-1029.99" font-family="Helvetica,sans-Serif" font-size="14.00">• Coverage + label dashboards at /eval</text>
<polygon fill="none" stroke="black" points="3396,-1021.19 3396,-1193.19 3724,-1193.19 3724,-1021.19 3396,-1021.19"/>
</g>
<!-- ai_map&#45;&gt;controls -->
</g>
</svg>
